<svg version="1.2" xmlns="http://www.w3.org/2000/svg" viewBox="0 0 325 175" width="325" height="175">
	<title>Ape Hands</title>
	<style>
		.s0 { fill: #ffffff } 
	</style>
	<path id="Ape Hands" class="s0" aria-label="Ape
Hands"  d="m118.9 67.5c1.5 3.6 2.5 7.5 4.4 11 1.2 2.2 3.9 3.6 6.4 2.9 7.2-1.9 4.2-10.4 3.4-15.5 1.3-0.8 5.2-1.3 6.9-1.7 2.1-0.4 3.3-1.9 3.2-4.2-0.1-5-8.4-3.9-11.9-4.1-2.5-7-2.5-16.5-7-22.6-3.8-5-9.9-5-13.9-0.5-7.3 8.1-11.9 17.4-17 26.8-2.2 4.3-11.4 0.9-11.1 7.3 0.1 3.5 3.1 3.9 5.9 4.3-0.7 2-1.7 4.4-1.9 6.5-0.7 6.3 6.8 9.6 10.7 4.3 2.6-3.6 4.7-8.3 6.7-12.2 0.6-1.1 0.9-1.3 2-1.4 4.4-0.2 8.8-0.5 13.2-0.9zm-9.1-8.3c1.4-2.4 2.9-4.7 4.5-7h0.2c0.6 2.1 1.1 4.1 1.6 6.2-2 0.2-4.2 0.5-6.3 0.8zm36.7-14.7c-0.1 6.7 2.2 18.4 3.4 25.3 0.9 4.9 2 10 3.2 14.9 1 4.1 3.7 7.3 8.3 6.4 2.5-0.6 3.9-2.5 4.5-4.8 1.1-5.3 0.4-12.3 0.4-17.8 0-1.2 0.3-1.7 1.4-2.3 10.7-5.2 25.3-13.6 28.2-26 1.9-7.8-2-16.2-9.5-19.5-12.9-5.7-36.3 2.2-39.1 17.3-0.4 2-0.8 4.5-0.8 6.5zm20.4-3.6c9.9-7.1 24.5 1.7 0.6 10.7zm50.9-1.7c2.5 0.3 5.1 0.5 7.6 0.6 6.5 0.3 15 1.2 15.2-7.9 0.3-13.4-24.3-9.8-32.1-6.9-1.6 0.7-2.1 1.6-2.6 3.2-3.7 12.5-7.6 25-6.5 38.3 1.3 15.1 21.4 17.5 33.3 16.9 2.4-0.1 4.3-1.5 5.3-3.6 8.8-19.1-13.4-15-22.9-17.2l0.5-5.1c4.5 0.1 9 0.9 13.4 0.9 7.7-0.1 8.1-11.4 0.8-13.6-3.7-1.1-8.4-0.9-12.3-1.1zm-163 84c0 7.7-0.7 15.6 0.4 23.5 1.7 12.2 21.2 12.6 22-1.9 0.6-11.3-0.1-23-0.2-34.3-0.1-6.6 0.9-14-0.3-20.6-0.5-3.1-3-5.6-6.5-6-5.7-0.4-7.6 3.4-9.1 7.7-2.4 6.7-3 13.1-4.5 19.7-4.9 0.2-9.7 0.4-14.5 0.7-1.3-6.2-0.2-18.5-3.4-23.7-2.6-3.9-8.1-3.7-10.4 0.2-3.2 5.9-2 19.7-2.1 26.5-0.8 0.5-1.6 0.7-2.4 1-4.8 2.2-3.3 9.1 2.2 9.4 0.6 0 1.3 0 2 0.1 0.8 4.7 4.4 25.4 6.3 28.2 1.4 1.7 3.4 2.8 5.7 2.5 2.1-0.4 4-1.7 4.6-3.7 1-3.6-2.2-22.5-2-28.4 4.1-0.4 8.1-0.7 12.2-0.9zm63 8.3c1.5 3.6 2.5 7.5 4.4 11 1.2 2.2 3.9 3.6 6.4 2.9 7.2-1.9 4.2-10.4 3.4-15.5 1.3-0.8 5.2-1.3 6.9-1.7 2.1-0.4 3.3-1.9 3.2-4.2 0-5-8.4-3.9-11.9-4.1-2.5-7-2.5-16.5-7-22.6-3.8-5-9.9-5-13.9-0.5-7.3 8.1-11.9 17.4-17 26.8-2.2 4.3-11.4 0.9-11.1 7.3 0.1 3.5 3.1 3.9 5.9 4.3-0.7 2-1.7 4.4-1.9 6.5-0.7 6.3 6.8 9.6 10.7 4.3 2.6-3.6 4.7-8.3 6.7-12.2 0.6-1.1 0.9-1.3 2-1.4 4.4-0.2 8.8-0.5 13.2-0.9zm-9.1-8.3c1.5-2.4 3-4.7 4.5-7h0.2c0.6 2.1 1.1 4.1 1.6 6.2-2 0.2-4.2 0.5-6.3 0.8zm68.8-11.7c-0.5 9.7 0 11-8.3 3.8-5.9-5.3-12.8-11.3-18.4-9.8-3.8 1.1-5.7 4.2-6 8-0.3 4.5 1.3 24.8 3.1 28.2 1.1 2.1 2.9 3.4 5.3 3.3 3.3-0.1 5.3-2.8 5.5-5.9 0.2-4.4 0.4-8.9 0.4-13.3 4.2 3.1 7 6.6 11.9 9 7.7 3.7 15.5 1.6 20.1-5.8 6-9.9 11.8-31.9 7.2-43-1.5-3.7-5.6-5.8-9.5-5.3-4.6 0.4-7 3.7-8.2 7.7-2.4 7.9-2.6 15.2-3.1 23.1zm25.8-11c-0.8 25.4-0.9 29.7-0.7 34 0.2 5.1 0.8 10.1 2.5 11.6 2.3 1.9 5.4 2.8 8.4 2.1 12-2.6 32.7-21.1 35.9-32.1 2.6-9.4-0.4-18-8.9-23-8.8-5-14.8-4.3-24.2-2.3-4.5 0.9-7-3-10.6 2.1-1.1 1.5-1.9 4.3-2.4 7.6zm14.8 3.8c25.8-4.4 11.9 15.4-1.2 21 0.1-6 0.3-11.1 1.2-21zm65-2.3c-3.7 3.1 1 11.8 9.5 7.7 16.8-7.8 15.2-26.6-1.4-27.4-18.2-0.8-49.4 21.4-33 36.6 5.8 5.4 14.6 8.1 21.6 11.8 5.9 3-0.5 4.1-3.4 3.8-8.3-0.6-13.4 2.1-14.3 10.8-0.7 6.5 4.6 11.6 11 11.3 4.9-0.3 9.8-1.4 14.3-3.4 4.4-2 8.3-4.9 10.6-9.2 4.3-8.2 0.6-16.5-6.5-21.6-6.2-4.4-13.1-6.2-19.7-9.7-7.2-4 8.9-9.4 11.3-10.7z"/>
</svg>