<svg version="1.2" xmlns="http://www.w3.org/2000/svg" viewBox="0 0 599 700" width="599" height="700">
	<title>Proyecto nuevo</title>
	<defs>
		<linearGradient id="g1" x2="1" gradientUnits="userSpaceOnUse" gradientTransform="matrix(0,-1177.958,1160.893,0,-86.062,956.382)">
			<stop offset="0" stop-color="#393252"/>
			<stop offset="1" stop-color="#7a6583"/>
		</linearGradient>
		<linearGradient id="g2" x2="1" gradientUnits="userSpaceOnUse" gradientTransform="matrix(0,-135.154,262.7,0,166.909,754.202)">
			<stop offset="0" stop-color="#3f3252"/>
			<stop offset="1" stop-color="#4f4766"/>
		</linearGradient>
	</defs>
	<style>
		.s0 { fill: url(#g1) } 
		.s1 { opacity: .1;mix-blend-mode: screen;fill: #a7b6df } 
		.s2 { opacity: .2;mix-blend-mode: multiply;fill: #803689 } 
		.s3 { opacity: .3;mix-blend-mode: soft-light;fill: #e0deea } 
		.s4 { fill: #45365c } 
		.s5 { opacity: .4;mix-blend-mode: multiply;fill: #6e1a46 } 
		.s6 { fill: url(#g2) } 
		.s7 { fill: #8f7cad } 
		.s8 { fill: #3a2652 } 
		.s9 { fill: #312045 } 
		.s10 { opacity: .1;mix-blend-mode: multiply;fill: #803689 } 
		.s11 { opacity: .2;mix-blend-mode: multiply;fill: #351a6e } 
	</style>
	<g id="&lt;Group&gt;">
		<g id="&lt;Group&gt;">
			<g id="&lt;Group&gt;">
				<path id="&lt;Path&gt;" class="s0" d="m674.6 588.6c-0.7 11.5-1.5 22.5-2.2 32.9-4.2 58.2-9 99.6-14.3 110.1-0.5 1.1-1 1.8-1.6 2.2-11.6 9.2-148.9 15-298.3 16.7q-10.2 0.1-20.4 0.2c-177.4 1.5-364.3-2.8-373.6-14.5-21.3-26.7-54.5-567.3-30.9-704.5 2.6-15.2 5.9-25.5 10-29.5 3.4-3.3 17.8-6.4 40.4-9.1 8.7-1.1 18.6-2.1 29.6-3 11.4-1 24-2 37.6-2.9 200.6-13 611.2-13.1 626.5 12.6 3.1 5.3 5.3 25.8 6.8 56.9q0 0 0 0.2c5.4 113.9 0.4 369.1-9.6 531.7z"/>
				<path id="&lt;Path&gt;" class="s1" d="m40.3 15c-100.5 37.5-90.6 336.7 144.3 361.7 235 25 484.7-152.6 404.2-247.9-80.4-95.3-464.3-145.3-548.5-113.8z"/>
				<path id="&lt;Path&gt;" class="s1" d="m120.6 15.2c-52.2 25.3 2.7 262.7 180.3 283.1 177.6 20.3 330-153 266.2-200-63.8-47-345.5-132.1-446.5-83.1z"/>
				<path id="&lt;Path&gt;" class="s2" d="m35.2 643.6c-27.3-14.8-38.8-130.5-19.4-162.9 19.4-32.3 522.6-104.5 550.4-84.1 27.7 20.3 38.3 222.6 7.4 255-31 32.5-483.8 21.6-538.4-8z"/>
				<path id="&lt;Path&gt;" class="s3" d="m656.5 733.8c-25.8 20.4-674.8 24.4-692.3 2.4-21.3-26.7-54.5-567.3-30.9-704.5l10.3 4.9c0 0 9.9 89.7 19.6 123.5 9.7 33.8 25 56.9 25 56.9 0 0-31.9 36.1-30 60.1 1.8 24.1 14.3 39.8 14.3 39.8 0 0-10.7 195.7-2.3 222 8.3 26.4 26.8 32.8 26.8 32.8 0 0-23.1 69.4-11.6 80.5 11.6 11.1 24.1 3.3 24.1 3.3 0 0 0 26.3 57.8 35.1 57.8 8.8 106.8-36.5 106.8-36.5 0 0 34.3 44.9 136.5 41.2 102.2-3.8 113.3-13.5 114.7-13.5 1.4 0 80.5 19.9 102.2 11.1 21.8-8.8 20.4-18.5 20.4-18.5 0 0 35.1 14.4 45.7 2.3 10.4-11.7 6.8-32 5.3-33.4 2.5 0.4 30 3.8 34.5-54 4.7-59.2-34.7-113.3-34.7-113.3 0 0 59.7-54.8 52.3-84.4-7.4-29.6-21.3-39.8-20.4-42.6 1-2.7 25.9-61.9 28.7-125.7 2.8-63.9-40.7-97.2-40.7-97.2 0 0 53.7-44.4 49.1-67.5-4.7-23.1-15.7-23.1-15.2-24.5 0.5-1.4 12.3-30.6-20.6-35.6-32.2-5.1-31.1 20.5-30.6 22.4-2.5-2.1-73.2-42.2-127.5-32.2-55 10.2-70.2 34.3-70.2 34.3 0 0-67.3-31.7-182.5-35.2-115.2-3.6-170.7 0-170.7 0l0.5-0.6c200.6-13 611.2-13.1 626.5 12.6 3.1 5.3 5.3 25.8 6.8 56.9q0 0 0 0.2c8.1 171.1-7.3 660.9-27.7 676.9z"/>
				<path id="&lt;Path&gt;" class="s4" d="m658.1 731.6c0 0.1 0 0.1 0 0.1q-0.4 0.8-0.8 1.3-0.1 0.1-0.1 0.2-0.2 0.1-0.3 0.3-0.2 0.2-0.4 0.3c-25.8 20.4-674.8 24.4-692.3 2.4-23.6-29.6-62-693.8-20.9-734 0 0 2.1 659.5 47.9 685.2 37.2 20.8 600.5 18.1 630.2-1.1q0.3-0.1 0.5-0.3c22.9-19.3 61.6-617.6 62.3-629.1 7.8 166.6-6.5 635.6-26.1 674.7z"/>
				<path id="&lt;Path&gt;" class="s5" d="m658.1 731.6c0 0.1 0 0.1 0 0.1q-0.4 0.8-0.8 1.3-0.1 0.1-0.1 0.2-0.2 0.1-0.3 0.3-0.2 0.2-0.4 0.3c-25.8 20.4-674.8 24.4-692.3 2.4 0 0 4.4-38.4 27-48.8 37.2 20.8 600.5 18.1 630.2-1.1 1.9 0.3 3.2 0.7 3.7 1.1 8.8 6.6 23.5 28.9 33 44.2z"/>
				<path id="&lt;Path&gt;" class="s6" d="m171.3 716.6c-26.6-2.1-32.7-16-22.7-24.7 4.6-4.1 12.9-7.1 24.3-7 20.7 0.1 30.8 5.8 32.9 12.4 0 0 0 0 0 0.1 3 9.6-11.2 21.1-34.5 19.2z"/>
				<path id="&lt;Path&gt;" class="s5" d="m178.4 704.8c-21.5-0.9-30.8-9-29.8-12.9 4.6-4.1 12.9-7.1 24.3-7 20.7 0.1 30.8 5.8 32.9 12.4 0 0 0 0 0 0.1 0.5 6.9-5.9 8.3-27.4 7.4z"/>
				<path id="&lt;Path&gt;" class="s7" d="m-9.9 80.5c0 0 42.3-0.1 60.1 8 17.9 8.1 27.7 29.1 27.7 29.1 0 0 7.5-17-3.8-28.4-11.4-11.3-72.9-11.7-84-8.7z"/>
				<path id="&lt;Path&gt;" class="s7" d="m80.1 133.8c0 0 2.5-9.4 20.3-10.3 17.8-1 102.4 21.3 102.4 21.3 0 0-81.8-36.4-101.4-31.5-19.7 4.8-21.3 20.5-21.3 20.5z"/>
				<path id="&lt;Path&gt;" class="s8" d="m202.8 144.8c-2.1-0.7-69.7-24.3-95.6-26.3-26.4-2.1-27.1 15.3-27.1 15.3 0 0 0-28.5-18.1-45.2-18-16.6-66.6-3.4-78.3-9.7-11.8-6.2 0-85.8 0-85.8 8.7-1.1 18.6-2.1 29.6-3-13.3 28.5-31.8 70.5-26.2 78.8 8.7 13 61.8-3.8 84.7 7.2 22.9 11.2 13.1 29.9 14.5 32 1.4 2.1 11.1-4.2 36.8-4.9 25.3-0.7 78 40.3 79.7 41.6z"/>
				<path id="&lt;Path&gt;" class="s7" d="m311.7 700.9c1.5-0.8 20.2-9.8 21.3-11.9 1-2.1-0.7-9.5 1.9-10.2 2.6-0.7 38.3-10.3 38.5-17.9 0.1-7.6-19.2-42.7-15.6-47.7 3.5-5 82.9-46 115.7-40.9 32.8 5.1 28.9 36.3 28.9 36.3 0 0 6.7-20.8 6.5-22.2-0.2-1.4-3.7-18-14.8-19.2-11.1-1.1-38.9 1.9-38.9 1.9 0 0-101.5 28.7-101.9 41.8-0.5 13.2 9.2 37.7 2.5 46.1-6.7 8.3-27.3 14.1-30.3 18.9-3 4.9-13.8 25-13.8 25z"/>
				<path id="&lt;Path&gt;" class="s7" d="m495.9 696.4c-0.2-0.1-30.9-18.2-25.3-28.3 5.7-10.2 32-8.6 33.6-12.9 1.5-4.2 5.4-49.8 4.7-49.1-0.7 0.7-12.7 41.8-20.8 45.5-8.1 3.7-30.1 10.5-27.1 17.6 3 7.2 34.9 27.2 34.9 27.2z"/>
				<path id="&lt;Path&gt;" class="s7" d="m512.3 594.8c0 0 6.4-6 13.9-5.6 7.6 0.3 52.5 30.6 70 25.4 17.5-5.2 33.1-39.1 40.9-38.6 7.9 0.4 17.6 18.1 17.6 18.1 0 0-6.8-26.2-12.1-25.6-5.4 0.5-34.6 34.1-56.5 31.4-21.8-2.7-60-25.1-67.7-18.1-7.8 6.9-6.1 13-6.1 13z"/>
				<path id="&lt;Path&gt;" class="s9" d="m674.6 588.6c-0.7 11.5-1.5 22.5-2.2 32.9-11.2-12.8-26.8-39-31.4-46.4-6-9.7-26.4 27.3-43 34.7-16.7 7.4-56.9-22.7-75-24.1-18-1.3-13.4 46.3-18.4 61.6-5.1 15.2-31.5 7.4-36.1 20.8-4.7 13.4 30.9 30.1 30.9 30.1l-10.1 0.4c0 0-24.5-13.9-30.5-25-6.1-11.1 19.4-25.9 30.5-33.3 11.2-7.4 27.3-62.9-7.9-69.8-35.1-7-116.1 33.8-123.9 40.2-7.9 6.5 18 43 8.3 50.9-9.7 7.8-36.1 12-34.7 17.6 1.4 5.5-17.6 17.6-20 22.6-2.4 5.2 19.5 13 26.5 22.5 4.1 5.7 13.6 17.6 20.6 26.2q-10.2 0.1-20.4 0.2c-0.5-7.7-2.1-19.1-6.7-26.4-7.4-11.7-38.8-23.4-38.8-23.4 0 0 28.2-10.2 25.4-18.5-2.8-8.3-20.4-10.2-20.4-10.2 0 0 40.8-3.2 50.9-13.8 10.2-10.7-3.7-43.5 5.6-54.6 9.2-11.1 105.4-41.7 135.9-41.7 30.6 0 73.6 35.7 105.1 30.6 31.4-5.1 45.8-41.6 49.6-40.1 3.8 1.5 7.7 31.3 13.7 34 3.1 1.4 10.1 1.9 16.5 2z"/>
				<path id="&lt;Path&gt;" class="s10" d="m141.7 522.2c-1.3 2.8-3.8 5.5-7.1 8-19.2 14.5-67.4 22.3-87.6 14.9-3.2-1.2-5.9-3.2-8.1-5.7q0 0-0.3-0.4c-13.7-16.4-8-55.5 11.2-66.4 12.8-7.3 78-2.1 89.8 3.8 11.8 5.9 11.1 26.3 2.1 45.8z"/>
				<path id="&lt;Path&gt;" class="s10" d="m55.7 434.4c-0.7 2.9-1.9 5.2-3.6 7-7.8 8.3-24.9 5.7-44.8-2q0 0-0.3-0.1c-3.4-1.4-6.9-2.9-10.4-4.5-1.4-0.5-2.7-1.2-4-1.8-30.1-14.2-6.5-42.1 16.3-52 27-11.8 51.6 34 46.8 53.4z"/>
				<path id="&lt;Path&gt;" class="s10" d="m578.4 149.2c-2.3 3-4.6 5.7-6.7 8.1-16.7 19.3-77.7-3-125.5-36.4q0 0-0.4-0.3c-5.1-3.6-10-7.3-14.7-11-0.3-0.2-0.5-0.4-0.7-0.6-6.8-5.5-13.1-11.1-18.7-16.9-46.3-47.2 35.3-65.6 62-72.6 43.9-11.5 118.4 12 139.2 32.4 18.8 18.3-12.5 69.5-34.5 97.3z"/>
				<path id="&lt;Path&gt;" class="s11" d="m55.7 434.4c-0.7 2.9-1.9 5.2-3.6 7 1.2-3.6 2.4-8.9 2.6-16.1 0.5-15.4-14.6-36.4-31-41.6-16.5-5.2-35.4 11.6-41.1 29.1-3.4 10.3 5.8 17.7 14 22-1.4-0.5-2.7-1.2-4-1.8-30.1-14.2-6.5-42.1 16.3-52 27-11.8 51.6 34 46.8 53.4z"/>
				<path id="&lt;Path&gt;" class="s11" d="m141.7 522.2c-1.3 2.8-3.8 5.5-7.1 8 2.9-4.1 6-9.2 8.2-14.9 5.6-14.2 4.5-26.7-3.3-35.8-7.8-8.9-65.9-7.9-80.1-6-14.2 1.9-20.8 14.2-25.5 33.6-4.3 17.5 3.2 29.6 4.7 31.9-13.7-16.4-8-55.5 11.2-66.4 12.8-7.3 78-2.1 89.8 3.8 11.8 5.9 11.1 26.3 2.1 45.8z"/>
				<path id="&lt;Path&gt;" class="s11" d="m578.4 149.2c-1.4-1.6 41.3-57.3 30.9-88.9-10.4-31.5-86-39.9-109.9-39.9-24 0-85 12.9-94 41-5.6 17.3 11.2 35.9 25 47.6-6.8-5.5-13.1-11.1-18.7-16.9-46.3-47.2 35.3-65.6 62-72.6 43.9-11.5 118.4 12 139.2 32.4 18.8 18.3-12.5 69.5-34.5 97.3z"/>
			</g>
		</g>
		<g id="&lt;Group&gt;">
			<g id="&lt;Group&gt;">
			</g>
		</g>
	</g>
</svg>