<svg version="1.2" xmlns="http://www.w3.org/2000/svg" viewBox="0 0 500 175" width="500" height="175">
	<title>Proyecto nuevo</title>
	<defs>
		<linearGradient id="g1" x2="1" gradientUnits="userSpaceOnUse" gradientTransform="matrix(0,-260.006,588.989,0,212.496,217.818)">
			<stop offset="0" stop-color="#393252"/>
			<stop offset="1" stop-color="#7a6583"/>
		</linearGradient>
		<linearGradient id="g2" x2="1" gradientUnits="userSpaceOnUse" gradientTransform="matrix(0,-55.038,106.977,0,155.449,173.795)">
			<stop offset="0" stop-color="#3f3252"/>
			<stop offset="1" stop-color="#4f4766"/>
		</linearGradient>
	</defs>
	<style>
		.s0 { fill: url(#g1) } 
		.s1 { opacity: .3;mix-blend-mode: soft-light;fill: #e0deea } 
		.s2 { fill: #45365c } 
		.s3 { opacity: .4;mix-blend-mode: multiply;fill: #6e1a46 } 
		.s4 { fill: url(#g2) } 
		.s5 { opacity: .1;mix-blend-mode: screen;fill: #7c5e7d } 
		.s6 { fill: #5f5270 } 
	</style>
	<g id="&lt;Group&gt;">
		<g id="&lt;Group&gt;">
			<g id="&lt;Group&gt;">
				<path id="&lt;Path&gt; copy" class="s0" d="m438.4 106.4q-0.4 7-0.9 13.4c-1.7 23.7-3.7 40.5-5.8 44.8-0.2 0.4-0.4 0.7-0.6 0.9-4.8 3.7-136.9 6.1-197.8 6.8q-4.1 0.1-8.3 0.1c-72.2 0.6-148.3-1.2-152.1-5.9-7.8-9.9-19.7-73.1-14.7-126.4 0.5-5.6 1.2-11.2 2.1-16.5 1.1-6.2 2.4-10.4 4.1-12 1.4-1.3 7.3-2.6 16.4-3.7 3.6-0.4 7.6-0.9 12.1-1.2 4.7-0.4 9.8-0.8 15.3-1.2 81.7-5.3 325.1-5.3 331.3 5.1q0.5 0.8 0.9 2.5c0.8 3.7 1.5 10.9 1.9 20.7q0 0 0 0.1c2.2 46.3 0.2 6.3-3.9 72.5z"/>
				<path id="&lt;Path&gt;" class="s1" d="m442.3 25.6q0 0 0 0c-0.3 4.7-16 104.4-25.4 112.2q0 0.1-0.2 0.1c-12.1 7.8-317.7 9-332.8 0.5-14.5-8.2-18.2-85.4-19.2-119.3 0.6 4 3.3 20.4 6.1 26.9 3.3 7.3 5.8 12 5.8 12 0 0-9.8 7.5-6.8 11.1 3.1 3.7 7.5 5.7 7.5 5.7 0 0-6.7 35.7 0 42.1 6.7 6.4 8.1 6.5 8.7 6.3 0.6-0.1-6.9 12.3 2.4 14.1 9.3 1.9 21.8-1.1 21.8-1.1 0 0 8.1 4.4 15.2 4.4 7 0 22.6-12.5 23-12.5 0.2 0.2 6.5 8.2 14.9 8.7 8.5 0.4 10.1-2.9 10.1-2.9 0 0 10.6 9.3 24.6 9.3 14.1 0 26.2-7.7 26.2-7.7 0 0 121 5.1 131.3 4.9 10.3-0.2 20.6-7.5 20.6-7.5 0 0 28.9 7.9 32.7 5.9 3.8-2-4.6-11.7-4.6-11.7 0 0 16.7 2.4 16.9-2.4 0.2-4.9-3.8-11-3.8-11 0 0 15.5-28.8 15.5-43.1 0-14.4-3.6-19.4-3-20 0.6-0.7 15.3-22.1 11.1-38.7-0.6-2.5-0.8-4.9-0.5-7.1 0.8 3.8 1.5 11 1.9 20.8z"/>
				<path id="&lt;Path&gt;" class="s2" d="m431.9 164.2q-0.1 0.2-0.2 0.4c-0.2 0.4-0.4 0.7-0.6 0.9q-0.3 0.2-0.6 0.4-0.1 0-0.1 0-0.2 0-0.3 0.1-0.3 0.1-0.5 0.2-0.5 0.2-1.2 0.3-0.6 0.2-1.4 0.3-0.4 0.1-0.9 0.2c-0.2 0.1-0.5 0.1-0.8 0.1q-0.9 0.2-2 0.4-1 0.1-2.2 0.2-0.6 0.1-1.2 0.2-0.6 0.1-1.3 0.1c-3 0.4-6.4 0.7-10.3 1q-1.7 0.1-3.5 0.2c-4.2 0.3-8.9 0.6-14 0.9q-1.2 0-2.5 0.1c-4.7 0.2-9.7 0.4-15 0.6q-2 0.1-4.1 0.2c-5.1 0.2-86.6 0.3-92 0.5q-2.5 0-5.1 0.1-6.7 0.2-13.5 0.3-2.8 0.1-5.6 0.1-1.3 0-2.7 0.1-2.3 0-4.5 0-2 0.1-4 0.1-3.2 0-6.5 0.1-1 0-2 0-2.6 0-5.3 0-4.9 0.1-9.8 0.1-3.6 0-7.3 0.1-3.5 0-7 0c-16.9 0-33.6-0.1-49.1-0.3q-1.6 0-3.2-0.1-1.1 0-2.2 0c-5.3-0.1-10.5-0.2-15.5-0.4-19.2-0.5-35.4-1.2-46.3-2.3q-1.4-0.1-2.7-0.3-0.6 0-1.2-0.1c-6.2-0.7-10-1.6-10.8-2.5q-0.2-0.2-0.3-0.5c-6.2-9.1-14.6-63.2-15.5-105.2-0.5-23.6 1.3-43.4 7.3-49.2 0 0 0.1 6.1 0.3 15.7v0.1c1 33.8 4.7 111.1 19.2 119.2 15.1 8.5 320.7 7.3 332.8-0.4q0.2-0.1 0.2-0.2c9.4-7.8 25.1-107.4 25.4-112.1q0.1 1.8 0.2 3.4 0 1.1 0.1 2.1 0.4 10.4 0.5 20.1 0 0 0 0c0.8 53.5-4.4 90.5-11.2 104.7z"/>
				<path id="&lt;Path&gt;" class="s3" d="m431.7 164.6q0 0 0 0-0.2 0.3-0.3 0.5-0.1 0.1-0.1 0.1 0 0.1-0.1 0.2-0.1 0.1-0.1 0.1c-10.6 8.3-351.1 9.9-358.2 1 0 0 1.8-15.7 11-19.9 15.1 8.5 320.8 7.3 332.8-0.5q1.2 0.3 1.6 0.5c3.5 2.7 9.5 11.8 13.4 18z"/>
				<path id="&lt;Path&gt;" class="s4" d="m157.2 158.5c-10.8-0.9-13.3-6.5-9.2-10.1 1.9-1.7 5.3-2.8 9.9-2.8 8.4 0 12.5 2.3 13.4 5q0 0 0 0.1c1.2 3.9-4.6 8.6-14.1 7.8z"/>
				<path id="&lt;Path&gt;" class="s3" d="m160.1 153.7c-8.7-0.4-12.5-3.7-12.1-5.3 1.9-1.7 5.3-2.8 9.9-2.8 8.4 0 12.5 2.3 13.4 5q0 0 0 0.1c0.2 2.8-2.4 3.4-11.2 3z"/>
			</g>
			<path id="&lt;Path&gt;" class="s5" d="m100.7 30c-18.5 20.5 106.8 61 145.1 61.4 38.3 0.5 60.1-50.3 47.6-59.2-12.4-8.9-187.4-8.1-192.7-2.2z"/>
			<path id="&lt;Path&gt;" class="s5" d="m122.5 33.6c-9.5 7.9 111.3 66.7 142.9 36.9 31.5-29.8 14.1-37.3 6.6-40.1-7.5-2.7-138.3-6.2-149.5 3.2z"/>
		</g>
		<g id="&lt;Group&gt;">
		</g>
		<path id="&lt;Path&gt;" class="s6" d="m98.5 129.1c-0.4 0 14.4 2.6 88 3.8 73.6 1.1 108.6-4 108.6-4 0 0-73.4 3.3-196.6 0.2z"/>
		<g id="Carpeta 1">
		</g>
	</g>
</svg>