<svg version="1.2" xmlns="http://www.w3.org/2000/svg" viewBox="0 0 500 175" width="500" height="175">
	<title>Proyecto nuevo</title>
	<defs>
		<linearGradient id="g1" x2="1" gradientUnits="userSpaceOnUse" gradientTransform="matrix(0,-205.733,681.284,0,230.316,184.018)">
			<stop offset="0" stop-color="#393252"/>
			<stop offset="1" stop-color="#7a6583"/>
		</linearGradient>
		<linearGradient id="g2" x2="1" gradientUnits="userSpaceOnUse" gradientTransform="matrix(90.476,-62.699,27.293,39.385,-19.175,42.913)">
			<stop offset=".011" stop-color="#187447"/>
			<stop offset="1" stop-color="#48ad26"/>
		</linearGradient>
		<linearGradient id="g3" x2="1" gradientUnits="userSpaceOnUse" gradientTransform="matrix(122.261,-84.725,30.704,44.307,304.824,96.951)">
			<stop offset=".011" stop-color="#187447"/>
			<stop offset="1" stop-color="#48ad26"/>
		</linearGradient>
	</defs>
	<style>
		.s0 { fill: url(#g1) } 
		.s1 { opacity: .1;mix-blend-mode: screen;fill: #a7b6df } 
		.s2 { fill: #45365c } 
		.s3 { opacity: .4;mix-blend-mode: multiply;fill: #6e1a46 } 
		.s4 { opacity: .7;mix-blend-mode: multiply;fill: #e5e0e5 } 
		.s5 { opacity: .3;mix-blend-mode: soft-light;fill: #cecfe5 } 
		.s6 { opacity: .3;mix-blend-mode: soft-light;fill: #e0deea } 
		.s7 { opacity: .1;mix-blend-mode: screen;fill: #dda7df } 
		.s8 { fill: #a295b3 } 
		.s9 { opacity: .1;mix-blend-mode: multiply;fill: #803689 } 
		.s10 { fill: #52416b } 
		.s11 { fill: #85739c } 
		.s12 { fill: #9581b5 } 
		.s13 { fill: #3a2652 } 
		.s14 { opacity: .4;mix-blend-mode: multiply;fill: #361a6e } 
		.s15 { fill: url(#g2) } 
		.s16 { fill: url(#g3) } 
		.s17 { mix-blend-mode: multiply;fill: #89c2fe } 
		.s18 { opacity: .6;mix-blend-mode: screen;fill: #204000 } 
		.s19 { fill: #7bdb56 } 
	</style>
	<g id="&lt;Group&gt;">
		<g id="&lt;Group&gt;">
			<path id="&lt;Path&gt;" class="s0" d="m474 55.3q0 0 0 0c-0.1 20-0.8 44.1-1.9 62.2-0.8 14.4-1.8 25-2.9 27.3q0 0-0.1 0.1-0.1 0-0.1 0-0.1 0-0.2 0.1 0 0 0 0c-0.6 0.1-1.8 0.3-3.6 0.5q-1.4 0.1-3.2 0.2-1 0-2.1 0.1c-0.1 0-0.1 0-0.1 0q-1.2 0.1-2.5 0.2h-0.1q-0.9 0-1.8 0 0 0.1-0.1 0c-0.6 0.1-1.3 0.1-1.9 0.1q0 0-0.1 0-1 0.1-2 0.1h-0.1q-0.8 0-1.6 0.1-0.3 0-0.6 0 0 0 0 0-1.7 0-3.5 0.1h-0.2q-0.5 0-1.1 0-1.8 0.1-3.7 0.1-0.9 0.1-1.9 0.1-3.9 0.1-8.2 0.2-3 0.1-6.2 0.1-3.3 0.1-6.6 0.1-1.1 0-2.3 0.1-0.6 0-1.1 0-0.9 0-1.8 0-0.8 0.1-1.7 0.1-1.3 0-2.5 0-1.5 0-2.9 0-1.3 0.1-2.7 0.1-1.5 0-3.1 0-7.8 0.1-16.1 0.2-1.7 0-3.4 0.1c-1.1 0-2.2 0-3.4 0q-3.4 0-7 0.1-3.1 0-6.4 0c-6.4 0.1-13.1 0.1-19.8 0.2q-6.2 0-12.5 0.1-1.8 0-3.5 0-2.9 0-5.8 0h-1.1q-2.3 0-4.6 0-1.3 0-2.6 0c-104.7 0.5-277.8-0.4-279.4-2.4q-0.1-0.1-0.1-0.2c-4.1-7-10.1-119.7-3.5-127.9q0-0.1 0-0.1 0.1 0 0.1-0.1 0.1 0 0.3-0.1 0.1-0.1 0.2-0.1 0.6-0.1 1.6-0.3 0.4 0 0.8-0.1 0.4 0 0.7 0 0.7-0.1 1.6-0.2 0.4 0 0.8 0c30.2-2.4 221-3.7 322.3-3.1q7.5 0 14.6 0.1 7.2 0 14 0.1 0 0 0 0 5.1 0.1 10 0.1 0 0 0 0 4.7 0.1 9.1 0.2h0.5q2.3 0 4.6 0 0 0 0 0 2.3 0.1 4.5 0.1 4.4 0.1 8.6 0.2 0 0 0 0c6.4 0.1 12.4 0.3 17.7 0.4h0.1c1.5 0.1 2.9 0.1 4.3 0.2h0.1q6.4 0.2 11.3 0.5h0.1q1.6 0.1 3 0.1h0.1c6.9 0.5 10.9 1 11.2 1.5 0.7 1.3 1.2 7.7 1.4 16.9v0.2c0.1 6 0.2 13.4 0.1 21.3z"/>
			<path id="&lt;Path&gt;" class="s1" d="m457 126.5c-0.2 0.3-4 0.6-10.6 0.9-8.3 0.3-20.9 0.6-36.5 0.8-96.7 1.5-362.6 1.1-364.4-1.1-3.1-4.1-8.3-94.8-2.8-100.3 0.9-0.9 25.6-1.7 61.7-2.2q0.1-0.1 0.2-0.1c29.4-0.4 66.4-0.7 104.3-0.9 94.8-0.3 249.3 0.5 250.7 2.9 2.7 4.6 0.4 93.8-2.6 100z"/>
			<path id="&lt;Path&gt;" class="s2" d="m473.9 56c-0.2 20-0.8 43.8-1.9 61.7-0.8 14.3-1.8 24.8-2.9 27.1q0 0 0 0 0 0 0 0.1-0.1 0.1-0.2 0.2c-0.3 0.5-7.4 0.9-19.5 1.3-15.3 0.5-38.7 0.9-66.3 1.2-14.1 0.1-29.3 0.2-45 0.3q-2.7 0-5.4 0.1h-1.8q-3.8 0-7.6 0h-2.8q-2.6 0-5.2 0-3.1 0.1-6.3 0.1c-31.1 0.1-117.3 0.1-147.2 0q-5.8 0-11.5 0-3.8 0-7.5-0.1-3.7 0-7.4 0-1.8 0-3.6 0-3.4-0.1-6.8-0.1h-0.4q-3.5 0-6.9 0h-0.8q-1.9 0-3.7-0.1-7.4 0-14.4-0.1-1.7 0-3.4 0-3.4-0.1-6.7-0.1 0 0 0 0-2.9-0.1-5.8-0.1 0 0 0 0-5-0.1-9.5-0.2-2.3 0-4.5 0c-6.5-0.2-12.2-0.3-17.1-0.5q-0.8 0-1.6 0h-0.1c-4.1-0.1-7.6-0.3-10.2-0.5q-0.6 0-1.1 0-0.5-0.1-1-0.1-0.9-0.1-1.5-0.1-0.5-0.1-0.9-0.1-0.5-0.1-0.9-0.2-0.6-0.1-0.7-0.2c-4-5.2-10.5-121.2-3.5-128.2q0 0 0 0.1c0 4.4 0.4 115.1 8.1 119.5q0 0.1 0.1 0.1 0.2 0.1 0.3 0.1 0 0 0.1 0 0.3 0.1 0.8 0.1 0.4 0.1 1 0.2 0.3 0 0.5 0 2.2 0.2 5.8 0.4 1.2 0 2.6 0.1 0.3 0 0.5 0 1.3 0.1 2.6 0.1 2.4 0.1 5.2 0.2 0.5 0 1.1 0 1.6 0.1 3.3 0.1 3.2 0.1 6.7 0.2 4.5 0.1 9.5 0.2 1.5 0 3 0 4.3 0.1 8.9 0.1 2.7 0.1 5.5 0.1 0.2 0 0.4 0 3 0.1 6.1 0.1 1.7 0 3.4 0 1.1 0 2.2 0 4.2 0.1 8.6 0.1 4 0 8.2 0.1 2.4 0 4.8 0 1.1 0 2.2 0 2.5 0.1 5 0.1 2.9 0 5.8 0 2.7 0 5.3 0c37.5 0.2 133.8 0.2 173.5 0.1q5.1-0.1 10.1-0.1 1.5 0 3 0 5 0 9.8 0 1.6-0.1 3.1-0.1 2.1 0 4.2 0 2.6 0 5.2 0 2 0 4-0.1 2.1 0 4.1 0 4 0 7.9-0.1 3.9 0 7.7 0 4.3-0.1 8.4-0.1 2.2 0 4.3-0.1 1.9 0 3.9 0h0.1q5.9-0.1 11.5-0.2h0.1q1.8 0 3.5 0h0.2q1.9-0.1 3.7-0.1 3.4-0.1 6.5-0.1 0.1 0 0.3 0c17.3-0.3 30.1-0.7 36.1-1.2q2.7-0.1 3.5-0.3 0.2-0.1 0.3-0.1 0.1-0.1 0.1-0.1 0.1-0.1 0.2-0.3v-0.1q0.2-0.2 0.3-0.7 0 0 0 0 0.1-0.1 0.1-0.3 0 0 0 0c0.3-1.1 0.7-2.7 1-4.7 2-11.6 4.2-37.4 5.9-60.3 1.7-22.7 3-42.6 3-43.5 0.4 7.2 0.5 17.5 0.4 29.1z"/>
			<path id="&lt;Path&gt;" class="s3" d="m469.1 144.8q0 0 0 0 0 0 0 0.1-0.1 0-0.3 0.1 0 0 0 0c-1 0.3-4 0.6-8.9 0.8q-0.1 0-0.1 0-1.2 0.1-2.5 0.2h-0.1q-0.9 0-1.8 0 0 0.1-0.1 0-0.9 0.1-1.9 0.1 0 0-0.1 0-1 0.1-2 0.1h-0.1q-1.1 0.1-2.2 0.1 0 0 0 0-1.7 0-3.5 0.1h-0.2q-2.3 0.1-4.8 0.1-0.9 0.1-1.9 0.1-6.7 0.2-14.4 0.3-3.3 0.1-6.6 0.1-1.2 0.1-2.3 0.1-2.3 0-4.6 0.1-1.3 0-2.5 0-1.5 0-2.9 0-1.3 0.1-2.7 0.1c-8.2 0.1-16.9 0.2-26 0.3q-3.4 0-7 0.1c-8.4 0-17.2 0.1-26.2 0.2q-5.3 0-10.7 0.1h-1.8q-1.8 0-3.5 0-2 0-4.1 0h-1.7q-4.1 0-8.3 0-2.2 0.1-4.3 0.1c-31.1 0.1-117.3 0.1-147.2 0q-5.8 0-11.5 0-3.8 0-7.5-0.1-3.7 0-7.4 0-1.8 0-3.6 0-3.4-0.1-6.8-0.1h-0.4q-3.5 0-6.9 0h-0.8c-10-0.1-19.5-0.2-28.2-0.3q0 0 0 0-2.9-0.1-5.8-0.1 0 0 0 0c-13.2-0.2-24.4-0.4-32.7-0.7h-0.1c-4.7-0.2-8.5-0.4-11.3-0.5q-0.5-0.1-1-0.1-0.9-0.1-1.5-0.1-0.5-0.1-0.9-0.1-0.5-0.1-0.9-0.2-0.6-0.1-0.7-0.2 0-0.1 0-0.2c0.4-3 1.9-7.1 4.6-8.4 0.7 0.5 5.8 0.8 14.3 1.1q0.8 0 1.7 0.1 0.9 0 1.9 0 0.8 0.1 1.6 0.1 1.1 0 2.3 0.1 1 0 2.1 0c4.3 0.1 9 0.2 14.2 0.3q1 0 2 0.1 3 0 6.1 0c9.6 0.2 20.4 0.3 32 0.4q2.9 0 6 0.1 0.9 0 1.9 0h0.3q2.4 0 4.8 0 1.1 0 2.2 0 2.5 0.1 5 0.1 2.9 0 5.8 0 2.7 0 5.3 0c37.5 0.2 133.8 0.2 173.5 0.1q5.1-0.1 10.1-0.1 1.5 0 3 0 8.7 0 17.1-0.1 6.8 0 13.3-0.1 4 0 7.9-0.1 3.9 0 7.7 0c46.2-0.5 80-1.2 82.3-2.2q0.1 0 0.1 0c1.7 0.3 5.2 6.2 6.2 7.9z"/>
			<path id="&lt;Path&gt;" class="s4" d="m463.5 137.1q-0.1-0.1-0.6-0.2c-5 3.3-418.2 3.8-424.5 0.2 0 0 4.6-9.3 7.2-10 2.3 3 407.7 2.5 411.2-0.3 2.5 1.7 6.7 10.3 6.7 10.3z"/>
			<path id="&lt;Path&gt;" class="s5" d="m472.4 17c-2.3 5-12.8 9.5-12.8 9.5-2.7-4.6-413.3-3.2-416.9 0.3-3.7-1.8-12.4-9.4-12.4-9.4 4.4-4.5 438.7-6.3 442.1-0.4z"/>
			<path id="&lt;Path&gt;" class="s6" d="m409.9 128.2c-96.7 1.5-362.6 1.1-364.4-1.1-3.1-4.1-8.3-94.8-2.8-100.3 0.9-0.9 25.6-1.7 61.7-2.2-2.3 0.1-22.8 2-26.5 3-3.8 1.1-21 0.5-24.6 0.6-3.6 0.2-8.2 0.2-8.8 3.3-0.6 3 2.2 14.6 2.2 14.6 0 0-6.7 15.2-4 25.2 2.6 10 5.1 14.8 5.1 15.9 0 1.1-1.7 27.6-1 31.7 0.8 4.2 4.7 7.4 6.5 7.9 1.8 0.4 22-1.3 22-1.3 0 0 53 1.4 62.4 1.4 9.4-0.1 33.7-2.4 33.7-2.4 0 0 131.2 2.3 138.8 3.3 7.5 1.1 47.4-1.6 53.4-2 4.1-0.2 29.9 1.4 46.3 2.4z"/>
			<path id="&lt;Path&gt;" class="s6" d="m457 126.5c-0.2 0.3-4 0.6-10.6 0.9 3.1-0.7 6.2-1.5 7.6-2.6 3.3-2.5-2.1-13.1-1.4-17 0.7-4 4.2-9.5 6-16.2 1.9-6.7-1.2-46-1.2-46 0 0 1-12.7-2.5-16.6-3.4-3.9-19.8 1.1-19.8 1.1 0 0-2.6-2.7-9.1-3.1-6.4-0.4-27 3.4-27 3.4 0 0-3.2-2.8-6.4-4.2-3.3-1.4-34.7 4.4-45.1 1.4-8.7-2.5-120.6-3.7-138.6-4 94.8-0.3 249.3 0.5 250.7 2.9 2.7 4.6 0.4 93.8-2.6 100z"/>
			<path id="&lt;Path&gt;" class="s7" d="m52.1 36.1c-36.9 15.7 207.3 78.5 292.6 74.8 85.3-3.7 113.6-65.3 101-71.7-12.6-6.5-369-13.6-393.6-3.1z"/>
			<path id="&lt;Path&gt;" class="s7" d="m138.6 35.5c-15.8 3.7 164.5 77.3 213.5 65.9 48.9-11.4 71.9-54.1 63.5-60.1-8.4-6-260.4-9.8-277-5.8z"/>
			<path id="&lt;Path&gt;" class="s8" d="m35.8 21.9c0 0 3.9 5.9 4.5 8.1 0.6 2.2 0.1 12.9 0.1 12.9 0 0 2.5-6.6 6.3-10.5 3.9-3.9 21.6-7.3 21.2-7.3-0.3 0-17 1.4-22.8 0.8-5.9-0.6-9.3-4-9.3-4z"/>
			<path id="&lt;Path&gt;" class="s8" d="m409.9 128.2c0 0 34.9-0.4 40.7-5.7 5.9-5.4 8.8-28.7 9.2-27.2 0.4 1.6-1 26.1 0 30.4 1 4.3 4.5 10.2 3.7 10-0.8-0.2-18.6-6.6-53.6-7.5z"/>
			<path id="&lt;Path&gt;" class="s8" d="m42.6 106.4c0 0 1.1 17.2 0 20.4-1 3.2-4.2 10.3-4.2 10.3 0 0 8.2-6.5 10.3-7.1 2-0.6 13.1-2.2 13.1-2.2 0 0-11.4 1.4-14.4-3.2-3-4.6-4.8-18.2-4.8-18.2z"/>
			<path id="&lt;Path&gt;" class="s9" d="m92.2 114.1c-0.3 1.4-1 2.3-2 2.9-3.8 2.3-11.3 0.4-16.7 0.1-6-0.4-12.5 1.5-15.7-2.8q-0.8-1-1.3-2.5c-2.4-7.4 0.3-22.3 7.1-23.8 4-1 30.2 19.8 28.6 26.1z"/>
			<path id="&lt;Path&gt;" class="s9" d="m116.8 102.6c0.1 1-0.4 1.9-1.1 2.6-3.5 3.3-14.4 2.5-21.1-1.4q-0.1 0-0.1 0-0.6-0.4-1.2-0.8c-7.9-5.4-4.4-13 2.7-14.6 4.8-1.1 20.7 7.7 20.8 14.2z"/>
			<path id="&lt;Path&gt;" class="s9" d="m448.3 101.5c-3.8 6.5-18.8 9.1-31 7.1q0 0 0 0-0.4-0.1-0.7-0.2c-14.8-2.7-14.3-10.1-14-18.1 0.4-8 13.4-16.6 18-17.4 3.7-0.7 26.5 14.1 28.4 24 0.4 1.7 0.1 3.2-0.7 4.6z"/>
			<path id="&lt;Path&gt;" class="s9" d="m92.2 114.1c-0.3 1.4-1 2.3-2 2.9 0.4-1.4 1-4.1-0.6-7.2-2.3-4.2-21-20-25.2-20.4-4.1-0.4-6.9 8.7-7.7 14.2-0.5 3.8 0.4 8.2 1.1 10.7q-0.8-1-1.3-2.5c-2.4-7.4 0.3-22.3 7.1-23.8 4-1 30.2 19.8 28.6 26.1z"/>
			<path id="&lt;Path&gt;" class="s9" d="m115.7 105.2c0.5-1.3 0.7-3.3-0.3-5.4-2.1-4.1-14.5-10-17.9-10.4-3.3-0.4-6.5 3-7.6 6.4-1.1 3.2 4 7.5 4.6 8q-0.6-0.4-1.2-0.8c-7.9-5.4-4.4-13 2.7-14.6 4.8-1.1 20.7 7.7 20.8 14.2 0.1 1-0.4 1.9-1.1 2.6z"/>
			<path id="&lt;Path&gt;" class="s9" d="m448.3 101.5c-0.3-2.1-1.2-5.1-3.7-8.9-5.5-8.5-20.2-15.8-22.4-17.1-2.2-1.4-12.8 6.7-15.3 8.7-2.6 2-4.1 10.3-2.3 15.1 1.6 4.7 12.1 9 12.7 9.3q-0.4-0.1-0.7-0.2c-14.8-2.7-14.3-10.1-14-18.1 0.4-8 13.4-16.6 18-17.4 3.7-0.7 26.5 14.1 28.4 24 0.4 1.7 0.1 3.2-0.7 4.6z"/>
			<path id="&lt;Path&gt;" class="s10" d="m92.3 43.4c0.4 0.4 0.9 3.6 6.9 5.6 6 1.9 12.5-2.2 12.5-2.2 0 0-5.7 1.5-10.2 0.3-4.5-1.1-9.2-3.7-9.2-3.7z"/>
			<path id="&lt;Path&gt;" class="s10" d="m355.8 93.2c0 0 0 4.5-3.1 7.5-3.2 2.9-9.3 3.7-9 3.7 0.2 0 9.6 1.7 11-2.5 1.4-4.2 1.1-8.7 1.1-8.7z"/>
			<path id="&lt;Path&gt;" class="s11" d="m92.3 43.4c0 0 5.2 3.8 9.2 4.3 3.9 0.5 10.6-1 10.2-0.9-0.5 0.1-12 0.6-19.4-3.4z"/>
			<path id="&lt;Path&gt;" class="s11" d="m343.7 104.4c0 0 5.5 0.4 8.6-2.3 3-2.6 3.5-8.9 3.5-8.9 0 0-1.6 8.7-12.1 11.2z"/>
			<g id="&lt;Group&gt;">
				<g id="&lt;Group&gt;">
					<path id="&lt;Path&gt;" class="s12" d="m325.2 138.8c0.1 0 19.1-1.9 30.8-3.1 11.8-1.1 25.9-3.9 25.7-6.6-0.3-2.7-4.5-4.3-4.5-4.3 0 0-6-0.4-6.2-0.7-0.2-0.3-0.6-4.1-0.6-4.1 0 0-0.2-1.9 7.9-4.5 8.1-2.6 13.9-2.5 14.4-3.8 0.6-1.3 9.8-32.6 9.8-32.6 0 0 0.1-4.1-3.9-8-4-3.9-15-12.5-14.8-16.4 0.2-4 5.9-5.1 8.9-5.4 2.9-0.3 31.5-1.4 34.6-2.2 3.2-0.9 19.7-12.6 22.9-10.6 3.2 1.9 9.6 21.4 14.1 20 4.6-1.5 7.8-16.5 7.8-16.5 0 0-4.4 12-9.2 9.1-4.8-3-8.2-13.2-12.1-13.6-4-0.4-25.4 8.5-27.9 7.7-2.5-0.7-2.4-2.8-2.4-2.8 0 0 0.6-3.2 8.8-8.3 8.1-5.1 7.6-7.1 7.5-7.3-0.2-0.2-4.6-1.6-4.6-1.6l-13.4 16.5c0 0-15.9 6.4-16.1 6.4-0.1 0-12.5 2.2-13.2 2.4-0.8 0.3-11.5 4.7-11.5 4.7l7.8 10 5.2 7.3 3.2 3.4 3.9 4.8-0.7 4.5-2.6 15.7-3 6.7-6.8 4.3-16.3 7-2 13.8z"/>
					<path id="&lt;Path&gt;" class="s13" d="m473.6 34.4c-1.2 3.5-5.1 23.9-11 19.9-6.5-4.5-7.3-20.6-15.4-18.1-8 2.5-14.4 9.4-21.4 10.3-7 0.8-47.9 0.1-42.7 8.8 5.1 8.7 20.9 18.5 19.4 23.8-1.5 5.2-10.4 31.1-11.5 32-1.1 0.8-19.5 3.6-20.6 8.6-1.1 5 12.8 4.1 9.5 9.4-3.4 5.3-54.7 8.4-57.2 10.4-2.4 1.9-12.3 0.7-9.4 8.5 0 0-13.9-8.8-11.4-9.1 2.5-0.3 57.6-4.7 63.2-11.5 5.6-6.9 0-8.6 3.6-11.9 3.7-3.3 16.5-6.7 19.5-9.2 3.1-2.5 7-17.2 5.9-28.1-1.2-10.8-18.3-18.3-17.4-24.2 0.9-5.8 31.9-9.2 40.6-15.3 8.8-6.1 10.3-15.1 10.3-15.1l-21.2-9.7h0.5q2.3 0 4.6 0 0 0 0 0c12.3 4.6 25.2 9.6 25.3 10.9 0.1 2.5-18.2 12.2-16.3 15.6 2 3.3 23.7-8.4 28.7-6.6 5 1.8 9.8 12.3 11.6 11.8 1.5-0.4 10.9-8.9 12.8-11.2z"/>
				</g>
				<g id="&lt;Group&gt;">
					<path id="&lt;Path&gt;" class="s12" d="m32.9 89.9c-0.1 0.2 7.8 0.8 8.3 0 0.6-0.7 0.4-1.1 1.4-2.6 1-1.5 11.5-11.6 17.7-13.9 6.1-2.4 23.4-32.9 25.1-33.6 1.6-0.8 18.5-8.2 29.7-7.9 11.3 0.3 45.8 16.8 52.7 15.6 6.9-1.3 21.4-19.6 22.3-20.1 1-0.5 22.2-13.9 22.2-13.9 0 0-22.2 9.5-24.3 11.9-2.1 2.4-15 16.3-23 14.8-8-1.5-37.8-11.6-52.2-10.7-14.3 0.8-31 10.2-31 10.2 0 0-32.1 29.9-33.4 33.2-1.4 3.2-5.7 14.4-8.3 15.7-2.5 1.2-6.5-0.9-7.2 1.3z"/>
					<path id="&lt;Path&gt;" class="s13" d="m28.5 95.7c0 0 1.3-9.3 3.3-9.5 2-0.2 7.1 0.4 9.5 0 2.4-0.4 4.5-23.4 12-26.5 7.4-3.2 27.6-17.7 27.9-22.5 0.3-4.8 27.3-8.7 31.6-9.3 4.4-0.5 37.6 6.9 52 6 14.5-0.9 22.1-8.8 22.9-10.2 0.7-1.3 26.7-11 25.6-10.6-1.1 0.4-22.5 12.7-24.2 13.7-1.6 1-13.3 21.1-24.1 19.7-10.7-1.5-39.1-16.5-50.4-15.4-11.4 1.1-28.3 5.6-31.4 9.6-3 4.1-15.7 28.8-22.5 31.8-6.8 2.9-18.6 13.4-19.3 15.8-0.7 2.4-7.7 0.4-9.4 2.1-1.7 1.7-3.5 5.3-3.5 5.3z"/>
				</g>
			</g>
		</g>
		<g id="&lt;Group&gt;">
			<path id="&lt;Path&gt;" class="s14" d="m474 55.3c-0.1 20-0.8 44.1-1.9 62.2q0 0.1-0.1 0.2c-1.8 4.2-4.2 8.7-7.4 13q-0.5 0.7-1.1 1.4-0.4 0.6-0.8 1.1-0.4 0.4-0.7 0.9c-0.3 0.3-0.5 0.6-0.8 0.9q-1.1 1.2-2.1 2.3 0 0.1 0 0.1c-3.8 4.2-7 7-9.5 8.9q0 0 0 0-0.1 0-0.2 0.1c-15.3 0.5-38.7 0.9-66.3 1.2q0.1 0 0.2-0.1 0 0 0.1 0c11.3-1.6 22.4-4.5 32.8-8.9q0 0 0 0c5.8-2.4 11.4-5.4 16.6-8.9q1.3-0.9 2.7-1.9 0.1 0 0.1-0.1 1-0.6 1.8-1.3 6.8-5.2 12.5-11.8 1.5-1.7 2.9-3.7c1.9-2.6 3.7-5.4 5.3-8.3q0.7-1.4 1.5-2.8 0.1-0.3 0.2-0.5c4.9-9.8 8.4-20.5 10.7-28.9 1.9-7 3-12.4 3.4-14.4q0.1-0.5 0.1-0.7z"/>
			<path id="&lt;Path&gt;" class="s14" d="m28.3 90.4c0.3 0.5-2.4-24.4 14.3-47 16.8-22.6 69.2-28.7 68.6-29.1-0.6-0.4-15.7-5.1-40.1 1.6-24.5 6.7-60.3 45.4-42.8 74.5z"/>
			<path id="&lt;Path&gt;" class="s15" d="m111.7 14.3l-16.5 0.4c0 0-25.4 2.4-45.1 18.4-19.7 16-21.4 41.5-21.4 41.5l-0.4 15.8c0 0-4.2-3.3-6.5-8.5-0.8-1.9-1.6-4.2-2-7-1.9-11.2 0.7-29.3 19.6-50.6 13.3-14.9 34.3-16.4 50.3-14.7 12.4 1.3 21.7 4.5 22 4.7z"/>
			<path id="&lt;Path&gt;" class="s16" d="m452.6 132.9c-19.3 15.6-45.2 28.3-77.8 26.4-11.9-0.7-20.6-8.5-19-11.5 0 0 9.2-0.1 21.6-0.2q2.1 0 4.2-0.1c17.4-0.8 37.2-5.1 55.2-17.3 20.3-13.9 29.8-41.6 34-60.3 2.5-11.2 3.2-19.1 3.2-19.1 0 0 6.2 9.9 7.1 15.5 1.7 10.5-5.6 47.9-28.5 66.6z"/>
			<path id="&lt;Path&gt;" class="s17" d="m111.7 14.3l-16.5 0.4c0 0-25.4 2.4-45.1 18.4-19.7 16-21.4 41.5-21.4 41.5l-0.4 15.8c0 0-4.2-3.3-6.5-8.5-0.8-1.9-1.6-4.2-2-7 1.4 2 3 3.5 4.4 1.9 3.2-3.4 4.2-29.8 21.7-47.1 14.4-14.1 55.6-13.8 43.8-20.1 12.4 1.3 21.7 4.5 22 4.7z"/>
			<path id="&lt;Path&gt;" class="s17" d="m452.6 132.9c-19.3 15.6-45.2 28.3-77.8 26.4-11.9-0.7-20.6-8.5-19-11.5 0 0 9.2-0.1 21.6-0.2q2.1 0 4.2-0.1c-1 1.5-0.6 3.4 4.5 5.1 10.8 3.4 50.5-2.4 70.9-26.1 19.4-22.7 24.7-61.4 13.8-56.6 2.5-11.2 3.2-19.1 3.2-19.1 0 0 6.2 9.9 7.1 15.5 1.7 10.5-5.6 47.9-28.5 66.6z"/>
			<path id="&lt;Path&gt;" class="s18" d="m44.9 19.6c-1.8 1.2 9.1 1.6 19.7-0.7 10.6-2.3 19.9-7.9 18.5-8.7-1.4-0.9-18.6-3.7-38.2 9.4z"/>
			<path id="&lt;Path&gt;" class="s18" d="m59 12.8c-2.7 0.8 8.5 4.3 12.1 3.1 3.5-1.2 7.3-5 5.4-5.7-1.8-0.7-11.6 0.9-17.5 2.6z"/>
			<path id="&lt;Path&gt;" class="s18" d="m470.4 76.3c-1.4 0.7-3.1 11.4-7.8 20.9-4.7 9.6-11.6 20.8-11 21.1 0.6 0.2 11.3-0.2 18-15.4 6.7-15.1 3.7-27.9 0.8-26.6z"/>
			<path id="&lt;Path&gt;" class="s19" d="m460.3 100.9c0 0 4.2 1.3 6.5-4 2.4-5.4 0.1-12.7 0.1-12.7 0 0-3.6 11.5-6.6 16.5-2.9 4.9 0 0.2 0 0.2z"/>
		</g>
		<g id="&lt;Group&gt;">
			<g id="&lt;Group&gt;">
			</g>
		</g>
	</g>
</svg>