<svg version="1.2" xmlns="http://www.w3.org/2000/svg" viewBox="0 0 599 700" width="599" height="700">
	<title>Proyecto nuevo</title>
	<defs>
		<linearGradient id="g1" x2="1" gradientUnits="userSpaceOnUse" gradientTransform="matrix(0,-1005.975,688.338,0,-182.129,851.52)">
			<stop offset="0" stop-color="#393252"/>
			<stop offset="1" stop-color="#7a6583"/>
		</linearGradient>
		<linearGradient id="g2" x2="1" gradientUnits="userSpaceOnUse" gradientTransform="matrix(0,34.9,-11.537,0,145.395,119.464)">
			<stop offset="0" stop-color="#3f3252"/>
			<stop offset="1" stop-color="#4f4766"/>
		</linearGradient>
		<linearGradient id="g3" x2="1" gradientUnits="userSpaceOnUse" gradientTransform="matrix(-0.542,68.028,-18.724,-0.149,524.733,382.896)">
			<stop offset="0" stop-color="#3f3252"/>
			<stop offset="1" stop-color="#4f4766"/>
		</linearGradient>
		<linearGradient id="g4" x2="1" gradientUnits="userSpaceOnUse" gradientTransform="matrix(-0.542,68.028,-18.724,-0.149,524.734,524.334)">
			<stop offset="0" stop-color="#3f3252"/>
			<stop offset="1" stop-color="#4f4766"/>
		</linearGradient>
		<linearGradient id="g5" x2="1" gradientUnits="userSpaceOnUse" gradientTransform="matrix(-352.987,-433.322,226.192,-184.258,505.042,402.098)">
			<stop offset=".011" stop-color="#187447"/>
			<stop offset="1" stop-color="#48ad26"/>
		</linearGradient>
		<linearGradient id="g6" x2="1" gradientUnits="userSpaceOnUse" gradientTransform="matrix(-220.031,-488.286,135.071,-60.865,19.381,924.271)">
			<stop offset=".011" stop-color="#187447"/>
			<stop offset="1" stop-color="#48ad26"/>
		</linearGradient>
		<linearGradient id="g7" x2="1" gradientUnits="userSpaceOnUse" gradientTransform="matrix(231.17,-604.511,188.171,71.958,118.378,830.39)">
			<stop offset=".011" stop-color="#187447"/>
			<stop offset="1" stop-color="#48ad26"/>
		</linearGradient>
	</defs>
	<style>
		.s0 { fill: url(#g1) } 
		.s1 { opacity: .2;mix-blend-mode: multiply;fill: #3cff59 } 
		.s2 { opacity: .3;mix-blend-mode: soft-light;fill: #e0deea } 
		.s3 { fill: #45365c } 
		.s4 { opacity: .4;mix-blend-mode: multiply;fill: #6e1a46 } 
		.s5 { fill: #7b6a91 } 
		.s6 { fill: url(#g2) } 
		.s7 { fill: url(#g3) } 
		.s8 { fill: url(#g4) } 
		.s9 { opacity: .1;mix-blend-mode: multiply;fill: #803689 } 
		.s10 { opacity: .4;mix-blend-mode: multiply;fill: #361a6e } 
		.s11 { fill: url(#g5) } 
		.s12 { fill: url(#g6) } 
		.s13 { fill: url(#g7) } 
		.s14 { mix-blend-mode: multiply;fill: #89c2fe } 
		.s15 { opacity: .6;mix-blend-mode: screen;fill: #204000 } 
		.s16 { fill: #7bdb56 } 
	</style>
	<g id="&lt;Group&gt;">
		<g id="&lt;Group&gt;">
			<path id="&lt;Path&gt;" class="s0" d="m525.5 194.9q0 4.5 0 8.9 0 4.5 0 9.1c0 7.6-0.1 15.4-0.1 23.2q0 4.6 0 9.2v0.3q-0.1 4.5-0.1 9c-0.1 13.7-0.2 27.6-0.3 41.6q0 0.7 0 1.5 0 3.6-0.1 7.2 0 3.3 0 6.6-0.1 6.2-0.1 12.3-0.1 3.7-0.1 7.5-0.1 3.6-0.1 7.3 0 0.4 0 0.9c-0.2 13.7-0.3 27.5-0.5 41.1q-0.1 3.8-0.1 7.6-0.1 3.5-0.1 7-0.1 3.8-0.1 7.5-0.1 1.1-0.1 2.2v0.5q0 1.2 0 2.4v0.1q-0.1 1.9-0.1 3.8-0.1 5.4-0.2 10.8 0 2.5 0 4.9 0 0.7-0.1 1.4 0 1.7 0 3.3c-0.2 8.4-0.3 16.7-0.5 24.9q0 4.2-0.1 8.4 0 0.4 0 0.8-0.1 3.9-0.2 7.7-0.1 3.7-0.1 7.4-0.1 1.3-0.1 2.5 0 2.3-0.1 4.6 0 2.2-0.1 4.4v0.4q0 0.5 0 1.1-0.2 6-0.3 12-0.1 4.1-0.2 8.2-0.1 2.7-0.1 5.3 0 0.1 0 0.2 0 0 0 0.1-0.1 1.9-0.1 3.7 0 1.1-0.1 2.1 0 0.1 0 0.2 0 0.8 0 1.5 0 1 0 1.9c-0.4 11.9-0.7 23.3-1 34.1q-0.1 1-0.1 2-0.1 4.7-0.3 9.1-0.1 3-0.2 5.8-0.1 5.4-0.3 10.5-0.1 0.6-0.1 1.2-0.1 3.3-0.2 6.6-0.2 4.1-0.4 8.1 0 0.6 0 1.3-0.1 1.5-0.1 3-0.3 5.2-0.5 9.9-0.2 3.5-0.3 6.7c-0.7 12.8-1.4 23-2.1 29.8q-0.1 0.7-0.2 1.4-0.5 4.5-1 6.7-0.2 0.7-0.3 1.1-0.1 0.2-0.1 0.4c-1.1 2.3-19.1 4.1-47.1 5.5-8.8 0.5-18.5 0.8-29 1.2-51.1 1.7-120.4 2.5-183.8 2.2q-2.2 0-4.4-0.1-3.1 0-6.3 0-3.2 0-6.5 0h-0.4q-3.4-0.1-6.7-0.1-1.8 0-3.6 0-1.8-0.1-3.6-0.1c-10.5-0.1-20.8-0.2-30.7-0.4q-2.5 0-5-0.1-6-0.1-11.8-0.2-2.6-0.1-5.3-0.1-1-0.1-2-0.1-2 0-3.9-0.1-1.7 0-3.3-0.1-2.7-0.1-5.4-0.1-0.7-0.1-1.4-0.1-2.1 0-4.1-0.1c-5.7-0.2-11.1-0.4-16.1-0.6q-2.1-0.1-4.1-0.2-0.2 0-0.4 0-2.1-0.1-4.1-0.2-1.1-0.1-2.2-0.1-2.1-0.1-4.1-0.3h-0.1q-2-0.1-3.9-0.2-1.9-0.1-3.6-0.2-1.1-0.1-2.2-0.2-1.5-0.1-2.8-0.3-1.2-0.1-2.3-0.1-1.1-0.2-2.1-0.3-1.4-0.1-2.6-0.3-2-0.2-3.6-0.5-0.4 0-0.8-0.1-0.9-0.1-1.6-0.3-0.8-0.2-1.4-0.4-1.4-0.4-1.7-0.8c-8.2-11.6-20.6-450.3-14.1-595.9 1.2-26.4 3-43.1 5.6-46q0-0.1 0.1-0.1 0.2-0.2 0.4-0.3 0.9-0.5 3-1.1 0.3 0 0.7-0.1 0.3-0.1 0.6-0.2 0.5-0.1 1-0.2 0.3 0 0.6-0.1 2.1-0.4 4.9-0.8 0.9-0.1 1.8-0.2 0.5-0.1 1-0.1 1-0.2 2-0.3 1.1-0.1 2.2-0.2 1.2-0.2 2.3-0.3 1.3-0.1 2.7-0.2 0.9-0.1 1.9-0.2 1.9-0.2 4-0.4 2-0.1 4.2-0.3 2.1-0.2 4.4-0.3 1.9-0.1 3.8-0.3 1.6-0.1 3.2-0.2c0.6 0 0.8 0 0.8 0 28.2-1.8 66.9-3.2 109.2-4 15.4-0.3 31.3-0.6 47.3-0.7q0 0 0 0c17.4-0.2 35-0.3 52.3-0.3 95.5 0 182.3 2.9 185.9 9.8q0 0.1 0.1 0.3 0.1 0.1 0.1 0.2 0 0.1 0 0.1 0.1 0.2 0.1 0.3 0.3 1.1 0.5 3.2 0.1 0.3 0.1 0.7 0.1 0.7 0.2 1.5 0 0.4 0 0.8 0.1 0.3 0.1 0.7 0.1 1.1 0.2 2.3 0.1 1.5 0.2 3.2 0 0.8 0.1 1.6 0.2 3.5 0.3 7.9 0.1 0.9 0.1 2 0 0.2 0 0.5 0.1 0.6 0.1 1.3 0 0.5 0 1 0 0.2 0 0.4 0.1 1.3 0.1 2.7 0.1 1.1 0.1 2.2 0 0.3 0 0.6 0 0.5 0.1 1 0 2.5 0.1 5.3v0.2q0 0.4 0 0.7 0 0.5 0 1 0.1 0.7 0.1 1.5 0 1.7 0.1 3.5 0 0.2 0 0.6 0 0.6 0 1.3 0 0.3 0 0.6v0.7q0 0.1 0 0.2 0 0.7 0.1 1.3 0 1.1 0 2.3 0 1.6 0.1 3.3 0 1 0 2.1 0.1 3.7 0.1 7.6 0 1.2 0 2.4 0.1 1.1 0.1 2.2 0 0.7 0 1.4 0 0.8 0 1.6 0 1.9 0.1 4 0 0.3 0 0.6 0 0.1 0 0.1 0 3.2 0 6.4 0.1 2.6 0.1 5.1 0 2.2 0 4.6 0 0.8 0 1.7 0 2.2 0.1 4.4 0 1.1 0 2.3 0 1.2 0 2.4 0 1.3 0 2.5 0 3.7 0.1 7.4v1q0 1.1 0 2.1v1.6q0 1.7 0 3.4v0.3q0 2.4 0 4.8c0 12.6 0.1 25.9 0 39.6z"/>
			<path id="&lt;Path&gt;" class="s1" d="m357.9 652.9c-8-5.8 41.4-59 59.8-49.6 18.4 9.4 12.4 17.2 12.4 17.2 0 0 23.5-19.9 40.6-4.4 17.1 15.6 23.5 31.6 16.6 35.8-6.8 4.1-116 10.6-129.4 1z"/>
			<path id="&lt;Path&gt;" class="s1" d="m241.8 35.5c-12.5 11.5-45.4 3.3-45.4 3.3 0 0 16.4 19.1-24.2 25.7-36.9 6-71.3-21-84.2-39.2 7.5-1.4 20.9-2.7 38.4-3.8 0.6 0 0.8 0 0.8 0 28.2-1.8 66.9-3.2 109.2-4 6.5 5.1 11.9 11.9 5.4 18z"/>
			<path id="&lt;Path&gt;" class="s1" d="m212.2 50.6c-6.5 7.3 28.3 23.5 29.1 12.8 0.8-10.6-23.8-18.8-29.1-12.8z"/>
			<path id="&lt;Path&gt;" class="s1" d="m250.4 40.6c-7.7 1-20.4 7.2-6.4 8.8 13.9 1.5 20.9-10.6 6.4-8.8z"/>
			<path id="&lt;Path&gt;" class="s2" d="m525.5 194.9q0 4.5 0 8.9 0 4.5 0 9.1c0 7.6-0.1 15.4-0.1 23.2q0 4.6 0 9.2v0.3q-0.1 4.5-0.1 9c-0.1 13.7-0.2 27.6-0.3 41.6q0 0.7 0 1.5 0 3.6-0.1 7.2 0 3.3 0 6.6-0.1 6.2-0.1 12.3-0.1 3.7-0.1 7.5-0.1 3.6-0.1 7.3 0 0.4 0 0.9c-0.2 13.7-0.3 27.5-0.5 41.1q-0.1 3.8-0.1 7.6-0.1 3.5-0.1 7-0.1 3.8-0.1 7.5-0.1 1.1-0.1 2.2v0.5q0 1.2 0 2.4v0.1q-0.1 1.9-0.1 3.8-0.1 5.4-0.2 10.8 0 2.5 0 4.9-0.1 2.4-0.1 4.7c-0.2 8.4-0.3 16.7-0.5 24.9q0 4.2-0.1 8.4 0 0.4 0 0.8-0.1 3.9-0.2 7.7-0.1 3.7-0.1 7.4-0.1 1.3-0.1 2.5 0 2.3-0.1 4.6 0 2.2-0.1 4.4v0.4q0 0.5 0 1.1-0.2 6-0.3 12-0.1 4.1-0.2 8.2-0.1 2.7-0.1 5.3v0.2q0 0 0 0.1-0.1 1.6-0.1 3.3 0 0.2 0 0.5 0 1.1-0.1 2.2 0 0.8 0 1.5 0 1 0 1.9c-0.4 11.9-0.7 23.3-1 34.1q-0.1 1-0.1 2-0.1 4.7-0.3 9.1-0.1 3-0.2 5.8-0.1 5.4-0.3 10.5-0.1 0.6-0.1 1.2-0.1 3.3-0.2 6.6-0.2 4.1-0.4 8.1 0 0.6 0 1.3-0.1 1.5-0.1 3-0.3 5.2-0.5 9.9-0.2 3.5-0.3 6.7c-0.7 12.8-1.4 23-2.1 29.8q-0.1 0.7-0.2 1.4-0.5 4.5-1 6.7-0.2 0.7-0.3 1.1-0.1 0.2-0.1 0.4c-1.1 2.3-19.1 4.1-47.1 5.5-8.8 0.5-18.5 0.8-29 1.2-51.1 1.7-120.4 2.5-183.8 2.2q-2.2 0-4.4-0.1-3.1 0-6.3 0-3.2 0-6.5 0h-0.4q-3.4-0.1-6.7-0.1-1.8 0-3.6 0-1.8-0.1-3.6-0.1c-10.5-0.1-20.8-0.2-30.7-0.4q-2.5 0-5-0.1-6-0.1-11.8-0.2-2.6-0.1-5.3-0.1-1-0.1-2-0.1-2 0-3.9-0.1-1.7 0-3.3-0.1-2.7-0.1-5.4-0.1-0.7-0.1-1.4-0.1-2.1 0-4.1-0.1c-5.7-0.2-11.1-0.4-16.1-0.6q-2.1-0.1-4.1-0.2-0.2 0-0.4 0-2.1-0.1-4.1-0.2-1.1-0.1-2.2-0.1-2.1-0.1-4.1-0.3h-0.1q-2-0.1-3.9-0.2-1.9-0.1-3.6-0.2-1.1-0.1-2.2-0.2-1.5-0.1-2.8-0.3-1.2-0.1-2.3-0.1-1.1-0.2-2.1-0.3-1.4-0.1-2.6-0.3-2-0.2-3.6-0.5-0.4 0-0.8-0.1-0.9-0.1-1.6-0.3-0.8-0.2-1.4-0.4-1.4-0.4-1.7-0.8c-8.2-11.6-20.6-450.3-14.1-595.9 1.2-26.4 3-43.1 5.6-46q0-0.1 0.1-0.1 0.2-0.2 0.4-0.3 0.9-0.5 3-1.1 0.3 0 0.7-0.1 0.3-0.1 0.6-0.2 0.5-0.1 1-0.2 0.3 0 0.6-0.1 2.1-0.4 4.9-0.8 0.9-0.1 1.8-0.2 0.5-0.1 1-0.1 1-0.2 2-0.3 1.1-0.1 2.2-0.2 1.2-0.2 2.3-0.3 1.3-0.1 2.7-0.2 0.9-0.1 1.9-0.2 1.9-0.2 4-0.4 2-0.1 4.2-0.3 2.1-0.2 4.4-0.3 1.9-0.1 3.8-0.3 1.6-0.1 3.2-0.2c-4.2 0.4-23.8 2.7-30.3 9.5q-1 1-1.7 2.1c-4.3 7.3 1.7 15.8 1.7 15.8 0 0-10 1.9-10.8 11.9-0.8 10 8.6 46.8 8.6 46.8 0 0-8.9 62.1-6.7 68.1 2.1 6 8.9 15 8.9 15 0 0-9.2 15.7-7.3 20 1.7 3.9 11 6 12.9 6.4-1.9-0.3-10.9-1-12.1 9.8-1.3 12.2 16.6 39.6 16.6 39.6 0 0-15.2 16.7-12.3 87.1 3 70.4 13.8 77.4 13.8 77.4 0 0-12.4 11.7-10.2 21 2.1 9.4 7.1 9.8 7.1 9.8 0 0-11.7 10.4-6.2 19.1 5.6 8.6 13.5 10.4 13.5 10.4 0 0-13.1 52.6-8.9 76.4 4.2 23.8 16.8 30.2 16.8 30.2 0 0-13.9 16.9-11.1 20.8 2.7 3.8 7 1.7 7.3 1.5-0.4 0.8-11.2 20.1 1.4 22.8 12.8 2.7 15.9-2.6 15.9-2.6 0 0 12.6 9.6 29.7 7.3 17-2.3 23.2-14.1 23.2-14.1 0 0 38.3 15 69.2 15.3 30.8 0.3 37.1-6.9 37.1-6.9 0 0 10.2 8.4 19.7 6.6 9.5-1.7 9.9-22 9.9-22 0 0 13.5 9.9 38.7 15.5 10.3 2.2 22.6 3.8 36.7 3.6 19-0.2 31.1-1 38.8-2 12-1.5 13.4-3.2 13.4-3.2 0 0 6.8 1.9 14.1 3.5 7.8 1.5 16.2 2.6 18 0.3 3.4-4.5-6.7-13.2-6.2-13 0.3 0.1 4.4 0.6 8.6 0.1 4.2-0.4 8.4-1.9 8.9-5.9 1.1-7.9-2.8-14.2-2.8-14.2 0 0 10.2-57.1 11.7-86.7 0.2-3.2 0.2-6.1 0.2-8.6q-0.2-5.5-0.5-10.2c-1.1-18.4-3.5-27.9-3.5-27.9 0 0 10.4-48.9 7.3-71.3-3.1-22.5-9.9-27.7-9.4-28.1 0.5-0.3 13-12.4 11.6-18.8-1.5-6.3-10.5-9.1-10.5-9.1 0 0 16.6-19.7 13.5-44.4-3-24.8-9.4-31.8-9.4-31.8 0 0 13.3-40.7 12.7-67.5-0.5-26.8-5.4-36-5.4-36 0 0 11.7-76.2 12.8-111.1q0-0.1 0-0.1c0.2-3.8 1.1-7.4 2.5-10.6q0.1 0.9 0.1 2 0 0.2 0 0.5 0.1 0.6 0.1 1.3 0 0.5 0 1 0 0.2 0 0.4 0.1 1.3 0.1 2.7 0.1 1.1 0.1 2.2 0 0.3 0 0.6 0 0.5 0.1 1 0 2.5 0.1 5.3v0.2q0 0.8 0 1.7 0.1 0.7 0.1 1.5 0 1.7 0.1 3.5 0 0.2 0 0.6 0 0.6 0 1.3 0 0.3 0 0.6 0 0.5 0 0.9 0 0.7 0.1 1.3 0 1.1 0 2.3 0 1.6 0.1 3.3 0 1 0 2.1 0.1 3.7 0.1 7.6 0 1.2 0 2.4 0.1 1.1 0.1 2.2 0 0.7 0 1.4 0 0.8 0 1.6 0 1.9 0.1 4 0 0.3 0 0.6 0 0.1 0 0.1 0 3.2 0 6.4 0.1 2.6 0.1 5.1 0 2.2 0 4.6 0 0.8 0 1.7 0 2.2 0.1 4.4 0 1.1 0 2.3 0 1.2 0 2.4 0 1.3 0 2.5 0 3.7 0.1 7.4v1q0 1.1 0 2.1v1.6q0 1.7 0 3.4v0.3q0 2.4 0 4.8c0 12.6 0.1 25.9 0 39.6z"/>
			<path id="&lt;Path&gt;" class="s3" d="m525.5 194.9q0 4.5 0 8.9 0 4.5 0 9.1c0 7.6-0.1 15.4-0.1 23.2q0 4.6 0 9.2v0.3q-0.1 4.5-0.1 9c-0.1 13.7-0.2 27.6-0.3 41.6q0 0.7 0 1.5 0 3.6-0.1 7.2 0 3.3 0 6.6-0.1 6.2-0.1 12.3-0.1 3.7-0.1 7.5-0.1 3.6-0.1 7.3 0 0.4 0 0.9c-0.2 13.7-0.3 27.5-0.5 41.1q-0.1 3.8-0.1 7.6-0.1 3.5-0.1 7-0.1 3.8-0.1 7.5-0.1 1.1-0.1 2.2v0.5q0 1.2 0 2.4v0.1q-0.1 1.9-0.1 3.8-0.1 5.4-0.2 10.8 0 2.5 0 4.9 0 0.7-0.1 1.4 0 1.7 0 3.3c-0.2 8.4-0.3 16.7-0.5 24.9q0 4.2-0.1 8.4 0 0.4 0 0.8-0.1 3.9-0.2 7.7-0.1 3.7-0.1 7.4-0.1 1.3-0.1 2.5 0 2.3-0.1 4.6 0 2.2-0.1 4.4v0.4q0 0.5 0 1.1-0.2 6-0.3 12-0.1 4.1-0.2 8.2-0.1 2.7-0.1 5.3 0 0.1 0 0.2 0 0 0 0.1-0.1 1.6-0.1 3.3 0 0.2 0 0.5 0 1-0.1 2 0 0.1 0 0.2 0 0.8 0 1.5 0 1 0 1.9c-0.4 11.9-0.7 23.3-1 34.1q-0.1 1-0.1 2-0.1 4.7-0.3 9.1-0.1 3-0.2 5.8-0.1 5.4-0.3 10.5-0.1 0.6-0.1 1.2-0.1 3.3-0.2 6.6-0.2 4.1-0.4 8.1 0 0.6 0 1.3-0.1 1.5-0.1 3-0.3 5.2-0.5 9.9-0.2 3.5-0.3 6.7c-0.7 12.8-1.4 23-2.1 29.8q-0.1 0.7-0.2 1.4-0.5 4.5-1 6.7-0.2 0.7-0.3 1.1-0.1 0.2-0.1 0.4c-1.1 2.3-19.1 4.1-47.1 5.5-8.8 0.5-18.5 0.8-29 1.2-51.1 1.7-120.4 2.5-183.8 2.2q-2.2 0-4.4-0.1-3.1 0-6.3 0-3.2 0-6.5 0h-0.4q-3.4-0.1-6.7-0.1-1.8 0-3.6 0-1.8-0.1-3.6-0.1c-10.5-0.1-20.8-0.2-30.7-0.4q-2.5 0-5-0.1-6-0.1-11.8-0.2-2.6-0.1-5.3-0.1-1-0.1-2-0.1-2 0-3.9-0.1-1.7 0-3.3-0.1-2.7-0.1-5.4-0.1-0.7-0.1-1.4-0.1-2.1 0-4.1-0.1c-5.7-0.2-11.1-0.4-16.1-0.6q-2.1-0.1-4.1-0.2-0.2 0-0.4 0-2.1-0.1-4.1-0.2-1.1-0.1-2.2-0.1-2.1-0.1-4.1-0.3h-0.1q-2-0.1-3.9-0.2-1.9-0.1-3.6-0.2-1.1-0.1-2.2-0.2-1.5-0.1-2.8-0.3-1.2-0.1-2.3-0.1-1.1-0.2-2.1-0.3-1.4-0.1-2.6-0.3-2-0.2-3.6-0.5-0.4 0-0.8-0.1-0.9-0.1-1.6-0.3-0.8-0.2-1.4-0.4-1.4-0.4-1.7-0.8c-8.2-11.6-20.6-450.3-14.1-595.9l5.6-46c0 0 11.6 609.7 27.9 618.3 9.7 5.2 141.4 6.9 247.6 5.8 29.6-0.3 57.2-0.9 79.6-1.6 11.3-0.4 21.3-0.8 29.6-1.3 11.8-0.7 20.2-1.4 23.7-2.3q1.1-0.3 1.6-0.6c3.7-2.1 7.9-51.4 11.9-121.4 0.3-6.5 0.7-13.3 1.1-20.2 7.8-145.2 14.9-361.2 16.8-444.3q0-0.1 0-0.1c0.5-18.3 0.6-30.2 0.5-33.4q0 0.1 0.1 0.3 0.1 0.1 0.1 0.2 0 0.1 0 0.1 0.1 0.2 0.1 0.3 0.3 1.1 0.5 3.2 0.1 0.3 0.1 0.7 0.1 0.7 0.2 1.5 0 0.4 0 0.8 0.1 0.3 0.1 0.7 0.1 1.1 0.2 2.3 0.1 1.5 0.2 3.2 0 0.8 0.1 1.6 0.2 3.5 0.3 7.9 0.1 0.9 0.1 2 0 0.2 0 0.5 0.1 0.6 0.1 1.3 0 0.5 0 1 0 0.2 0 0.4 0.1 1.3 0.1 2.7 0.1 1.1 0.1 2.2 0 0.3 0 0.6 0 0.5 0.1 1 0 2.5 0.1 5.3v0.2q0 0.4 0 0.7 0 0.5 0 1 0.1 0.7 0.1 1.5 0 1.7 0.1 3.5 0 0.2 0 0.6 0 0.6 0 1.3 0 0.6 0 1.3 0 0.7 0.1 1.5 0 1.1 0 2.3 0 1.6 0.1 3.3 0 1 0 2.1 0.1 3.7 0.1 7.6 0 1.2 0 2.4 0.1 1.1 0.1 2.2 0 0.7 0 1.4 0 0.8 0 1.6 0 1.9 0.1 4 0 0.3 0 0.6 0 0.1 0 0.1 0 3.2 0 6.4 0.1 2.6 0.1 5.1 0 2.2 0 4.6 0 0.8 0 1.7 0 2.2 0.1 4.4 0 1.1 0 2.3 0 1.2 0 2.4 0 1.3 0 2.5 0 3.7 0.1 7.4v1q0 1.1 0 2.1v1.6q0 1.7 0 3.4v0.3q0 2.4 0 4.8c0 12.6 0.1 25.9 0 39.6z"/>
			<path id="&lt;Path&gt;" class="s4" d="m514.1 667.2c-1.1 2.3-19.1 4.1-47.1 5.5-8.8 0.5-18.5 0.8-29 1.2-51.1 1.7-120.4 2.5-183.8 2.2q-2.2 0-4.4-0.1-3.1 0-6.3 0-3.2 0-6.5 0h-0.4q-3.4-0.1-6.7-0.1-1.8 0-3.6 0-1.8-0.1-3.6-0.1c-10.5-0.1-20.8-0.2-30.7-0.4q-2.5 0-5-0.1-6-0.1-11.8-0.2-2.6-0.1-5.3-0.1-1-0.1-2-0.1-2 0-3.9-0.1-1.7 0-3.3-0.1-2.7-0.1-5.4-0.1-0.7-0.1-1.4-0.1-2.1 0-4.1-0.1c-5.7-0.2-11.1-0.4-16.1-0.6q-2.1-0.1-4.1-0.2-0.2 0-0.4 0-2.1-0.1-4.1-0.2-1.1-0.1-2.2-0.1-2.1-0.1-4.1-0.3h-0.1q-2-0.1-3.9-0.2-1.9-0.1-3.6-0.2-1.1-0.1-2.2-0.2-1.5-0.1-2.8-0.3-1.2-0.1-2.3-0.1-1.1-0.2-2.1-0.3-1.4-0.1-2.6-0.3l-9.1-2.1c0 0 13.2-20.9 19.4-23.6 9.7 5.2 141.4 6.9 247.6 5.8 29.6-0.3 57.2-0.9 79.6-1.6 11.3-0.4 21.3-0.8 29.6-1.3 11.8-0.7 20.2-1.4 23.7-2.3q1.1-0.3 1.6-0.6c0 0 19.3 9.9 22.5 21.5z"/>
			<g id="&lt;Group&gt;">
			</g>
			<g id="&lt;Group&gt;">
			</g>
			<g id="&lt;Group&gt;">
				<g id="&lt;Group&gt;">
				</g>
			</g>
			<g id="&lt;Group&gt;">
				<g id="&lt;Group&gt;">
				</g>
			</g>
			<path id="&lt;Path&gt;" class="s5" d="m120.6 112.5c0 0-0.1 8.8-0.6 9.6-0.6 0.8-1.8 4.2-1.6 10 0.3 5.9 3.1 9 3.8 11.2 0.6 2.2 1.6 6.4 1.6 6.3-0.1-0.1-2.1-13.8-2.1-15.3 0-1.5-1.1-19.3-1.1-21.8z"/>
			<path id="&lt;Path&gt;" class="s6" d="m124.2 132.8c-0.2 2.5-0.8 4.7-1.9 5.5-1.8 1.3-3-3.3-3.3-7.8-0.2-3.3 0.2-6.6 1.3-7.5q0.3-0.2 0.5-0.2c2.4-0.2 3.6 5.4 3.4 10z"/>
			<path id="&lt;Path&gt;" class="s5" d="m479.1 379c0 0 0.7 8.8 1.2 10.7 0.6 1.9 3.5 6.8 2.2 17.7-1.3 10.8-3.4 12.5-4.2 14.8-0.8 2.3-2 7.6-2 7.6 0 0 2.2-25.4 2.3-29.9 0.1-4.4 0.5-20.9 0.5-20.9z"/>
			<path id="&lt;Path&gt;" class="s7" d="m479 390.2c-4.8-1.1-6.8 28.5-1.4 25.6 5.5-3 4.4-24.8 1.4-25.6z"/>
			<path id="&lt;Path&gt;" class="s8" d="m479 531.7c-4.8-1.2-6.8 28.5-1.4 25.5 5.5-3 4.4-24.8 1.4-25.5z"/>
			<path id="&lt;Path&gt;" class="s4" d="m124.2 132.8c-0.4 0.4-0.8 0.8-1.4 0.9-1.7 0.4-3.1-1.1-3.8-3.2-0.2-3.3 0.2-6.6 1.3-7.5q0.3-0.1 0.5-0.2c2.4-0.2 3.6 5.4 3.4 10z"/>
			<path id="&lt;Path&gt;" class="s4" d="m478.8 390.2c-4 0.6-6.8 16.3-0.9 17.8 6 1.4 3.6-18.2 0.9-17.8z"/>
			<path id="&lt;Path&gt;" class="s9" d="m182.1 575.6c-4 3.1-10.3 5.5-15.7 5.1-8.7-0.6-14.4-1.9-20.4-4.1q0-0.1-0.2-0.1-0.2-0.1-0.4-0.2-0.1 0-0.1 0-0.9-0.3-1.8-0.7c-6.9-2.8-4.8-16.5-2.6-20.7 1.4-2.7 6.9-2.1 13.1-0.6 6.2 1.5 9.5 6.6 17.5 8.4 7.9 1.8 10-0.3 14 4.9 1.8 2.3 0 5.4-3.4 8z"/>
			<path id="&lt;Path&gt;" class="s9" d="m460.5 301c0.1 1.8-0.4 3.2-1.4 4.2h-0.1c-3.6 3.8-13.5 3.3-21.3 2.7q-0.8-0.1-1.5-0.2c-8.3-1.2-5.2-6-1.4-12.8 4.1-7.2 12.4-7.1 17.4-9.1 4.6-1.8 7.7 7 8.3 15.2z"/>
			<path id="&lt;Path&gt;" class="s9" d="m460.1 301.4c0.4-2.9-3.9-13.4-5.9-14.6-2-1.2-11.5 2.5-13.8 4.1-2.3 1.5-8.1 8.5-8.2 12.1-0.1 3.6 4 4.7 4 4.7-8.3-1.2-5.2-6-1.4-12.8 4.1-7.2 12.4-7.1 17.4-9.1 4.6-1.8 7.7 7 8.3 15.2 0.1 1.8-0.4 3.2-1.4 4.2 0.3-1 0.8-2.3 1-3.8z"/>
			<path id="&lt;Path&gt;" class="s9" d="m182.1 575.6c1.6-1.7 3.5-4.5 2.9-7.2-0.9-4.3-7.2-3.3-12.6-4-5.3-0.8-10.2-3.9-13.6-6.7-3.3-2.7-8.8-3.8-14.9-2.6-6 1.3-3.6 15.6-2 18.2 1 1.7 2.6 2.6 3.4 3q-0.9-0.3-1.8-0.7c-6.9-2.8-4.8-16.5-2.6-20.7 1.4-2.7 6.9-2.1 13.1-0.6 6.2 1.5 9.5 6.6 17.5 8.4 7.9 1.8 10-0.3 14 4.9 1.8 2.3 0 5.4-3.4 8z"/>
			<g id="&lt;Group&gt;" style="opacity: .4;mix-blend-mode: multiply">
			</g>
		</g>
		<path id="&lt;Path&gt;" class="s10" d="m525.5 191.1c-6.7 9.9-18.1 21.1-34.7 22.5-30.1 2.4-97.6-162.4-147-182.4-37.6-15.3-58.9-14.4-60.1-14.4 17.4-0.2 35-0.3 52.3-0.3 27.2 15.9 72.4 61.4 74.8 65.2 2.9 4.5 63.5 93.2 85.9 100.7 21.2 7.2 28-32.8 28.8-37.5 0 14.5 0.1 30 0 46.2z"/>
		<path id="&lt;Path&gt;" class="s10" d="m522.1 494.3q-0.2 6-0.3 12-0.1 4.1-0.2 8.2-0.1 2.7-0.1 5.3v0.2q0 0 0 0.1-0.1 1.9-0.1 3.7v0.1l-0.3 0.4c0 0-11.7-1-17.6 0q-0.6 0.1-1.5 0.3c-4 0.6-13.2 2.1-23 6.2-1.9 0.8-3.9 1.7-5.8 2.7-12.4 6.5-24.4 17.7-26.8 37.1-1.1 8.7-0.9 16.9 0.1 24.6q0 0.2 0.1 0.3-0.1 0 0 0c0.7 5.4 1.8 10.5 3.2 15.3 4 14 10 25.4 14 33.2q1.4 2.6 2.5 4.6 1 2.1 1.5 3.5 0.4 1.3 0.6 2.8c0.8 5.3-0.2 12.3-1.4 17.8-8.8 0.5-18.5 0.8-29 1.2-0.1-4-0.4-10.1-0.8-16.8q-0.2-3.5-0.5-7.2-0.2-3.1-0.4-6.2c-0.7-9.5-1.5-19-2.6-25.9q-0.1-1-0.3-2c-0.9-5.3-2.1-11.9-3.1-18.9q0-0.4-0.1-0.8 0-0.2 0-0.5c-1.5-11-2.5-22.9-1.5-32 0.6-5.2 1.8-9.4 3.9-12.2 3.3-4.5 16.4-13.4 30.9-22.5 3.2-2.1 6.5-4.1 9.7-6.1q3-1.8 5.9-3.6c8.7-5.2 16.8-10 22.6-13.4q1.6-0.9 2.9-1.7c3.4-2 5.5-3.2 5.7-3.4 0.2-0.2 5.3-3 11.8-6.4z"/>
		<path id="&lt;Path&gt;" class="s10" d="m76.7 387c0 0 4.3 133.4 45.6 191 41.4 57.6 127.8 98.1 127.8 98.1l-63.1-0.8c0 0-50-19-82.1-65.5-32.1-46.6-22.3-124.2-22.3-124.2 0 0-14.1-61.3-12-71.5 2.1-10.1 6.1-27.1 6.1-27.1z"/>
		<g id="&lt;Group&gt;">
			<path id="&lt;Path&gt;" class="s11" d="m537.9 114.3c-2.3 28-18.2 82.6-45 81.6-37.9-1.4-104.4-167.8-144.1-180.9-24.5-8.1-36.4 1.5-36.4 1.5l-28.7 0.3c0 0 7-8.2 21.7-12.4 12.2-3.4 29.7-4 52.9 5.5 46.6 19 110.4 190.8 141.3 158.7 13-13.4 19.3-36 22.4-54.2 2.7-16.2 2.9-28.9 2.9-28.9 0 0 14.5 11.3 13 28.8z"/>
			<path id="&lt;Path&gt;" class="s12" d="m250.1 676.1c0 0-9 13.4-30.8 13.4-7.9 0-27.2-5.9-51.7-27.9-22.9-20.7-50.5-55.5-77.5-112.9-26.3-55.8-30.8-94.8-28.3-120.6 2.9-29 14.9-41.1 14.9-41.1l0.7 31c0 0 0.9 31 12.4 80.5 16.4 70.7 32.4 120.8 130.8 175.2 5.9 3.2 29.5 2.4 29.5 2.4z"/>
			<path id="&lt;Path&gt;" class="s13" d="m535.6 493c-8 22.1-69.3 12.8-92.1 67-13.6 32.5-1.6 70.3 5 97.9q0 0 0 0 0 0 0 0c4.5 18.3 6.5 32-2.8 36.8-23.3 11.8-77-8.1-67.7-26.4 9.4-18.2 28.7-27 32.8-16.9 0.5 1.4 1 2.9 1.3 4.3 1.9 9.2-0.7 18.8-2.5 17.5-2.2-1.5-19.7-11.3-17.2 2.5 2.4 13.8 40.3 25.8 44.8 0.5 1.8-10.4-3.4-30.2-8.1-52.1-6.7-31.4-12.4-67 5.6-84.8 23.1-22.8 58.8-41.8 75.6-52.1 5.4-3.3 8.9-5.8 9.3-7.2 2-5.7 3.4-30.8 3.4-30.8 0 0 21 20.3 12.6 43.8z"/>
			<path id="&lt;Path&gt;" class="s14" d="m250.1 676.1c0 0-9 13.4-30.8 13.4-7.9 0-27.2-5.9-51.7-27.9 16.1 8.1 47.6 23.1 51.7 17.3 5.6-7.9-64-32-100-89.6-36-57.6-40.4-139.7-46.2-156.2-2.3-6.6-6.7-7-11.3-5 2.9-29 14.9-41.1 14.9-41.1l0.7 31c0 0 0.9 31 12.4 80.5 16.4 70.7 32.4 120.8 130.8 175.2 5.9 3.2 29.5 2.4 29.5 2.4z"/>
			<path id="&lt;Path&gt;" class="s14" d="m414.1 692.8c-24.9-2.1-31.8-22-27.2-30.5 4.6-8.6 18.7 4.6 21.8 6.1 3.2 1.6 3.4-12.7 3.4-12.7 1.9 9.2-0.7 18.8-2.5 17.5-2.2-1.5-19.7-11.3-17.2 2.5 2.4 13.8 40.3 25.8 44.8 0.5 1.8-10.4-3.4-30.2-8.1-52.1 0 0 13.2 34.5 13.8 50.1 0.6 15.6-3.8 20.6-28.8 18.6z"/>
			<path id="&lt;Path&gt;" class="s14" d="m535.6 493c-8 22.1-69.3 12.8-92.1 67-13.6 32.5-1.6 70.3 5 97.9-0.6-1.7-27.1-70-14.1-98 13.2-28.3 62-48.1 74.1-55.1 10.5-6.1 10.9-14.3 1.8-17.6 5.4-3.3 8.9-5.8 9.3-7.2 2-5.7 3.4-30.8 3.4-30.8 0 0 21 20.3 12.6 43.8z"/>
			<path id="&lt;Path&gt;" class="s14" d="m537.9 114.3c-2.3 28-18.2 82.6-45 81.6-37.9-1.4-104.4-167.8-144.1-180.9-24.5-8.1-36.4 1.5-36.4 1.5l-28.7 0.3c0 0 7-8.2 21.7-12.4-1.2 3-1.2 6.7 7.3 6.1 13.3-0.9 26.2-5.3 41.1 1.9 25.5 12.4 109.8 172.6 140.8 176 30.9 3.4 45.4-76.9 27.4-74 2.7-16.2 2.9-28.9 2.9-28.9 0 0 14.5 11.3 13 28.8z"/>
			<path id="&lt;Path&gt;" class="s15" d="m429.4 585.4c0.4 6.6-12.6-13.8-0.7-38 6.4-13.1 42.5-25.4 34.6-20.2-7.8 5.1-35.8 24.9-33.9 58.2z"/>
			<path id="&lt;Path&gt;" class="s15" d="m386.2 660.9c-3.4 1.7 4.5-13.3 18.1-13.4 6.4 0 6.9 20.8 4.4 19.3-2.4-1.6-9.2-12.3-22.5-5.9z"/>
			<path id="&lt;Path&gt;" class="s15" d="m430.5 565.1c-1.1 4-7.9-9.2 0.3-19.6 3.8-4.7 12.3-3.2 11.5-1.6-0.7 1.7-8.6 9.4-11.8 21.2z"/>
			<path id="&lt;Path&gt;" class="s16" d="m429.3 549.3c-0.4 1.4 5.4-2 4.4-3.7-1-1.6-3.6 1.1-4.4 3.7z"/>
			<path id="&lt;Path&gt;" class="s15" d="m403.9 648.1c-2.9-0.1-14.8 5.7-11.3 8 3.5 2.2 16.7 5.9 16.1 2.9-0.5-3.1-1-10.7-4.8-10.9z"/>
			<path id="&lt;Path&gt;" class="s15" d="m455.4 142.5c-5.5-1.6 25.3 46 40.5 44.4 15.1-1.7 19.8-31 17.1-31.8-2.7-0.8-7.4 17.9-20.3 18.2-12.8 0.2-35.4-30.3-37.3-30.8z"/>
			<path id="&lt;Path&gt;" class="s15" d="m311.6 3.6c-3.7 1.4 14.5 4.5 19.3 4.1 4.8-0.5 11.1-1.5 8.7-2.9-2.5-1.3-20-4.2-28-1.2z"/>
			<path id="&lt;Path&gt;" class="s15" d="m475.3 166.1c-5.5-3.8 13.9 21.6 20.6 18.6 6.7-2.9 10.5-12.4 8.2-12.9-2.2-0.5-6.9 9.5-28.8-5.7z"/>
			<path id="&lt;Path&gt;" class="s15" d="m316.9 2.7c-2.4 0.8 7 3.5 9.8 3 2.8-0.6 4.8-2 3.3-2.5-1.6-0.6-11.7-1-13.1-0.5z"/>
			<path id="&lt;Path&gt;" class="s16" d="m320.2 2.9c-1.3 1.5 5.5 2.1 5 1-0.6-1.2-4.4-1.8-5-1z"/>
			<path id="&lt;Path&gt;" class="s15" d="m67.2 434.6c-8.7-3.8-1.1 50.8 9.8 78.8 10.8 28 20 45.5 20.1 38 0.2-7.4-26.2-115.1-29.9-116.8z"/>
			<path id="&lt;Path&gt;" class="s15" d="m69.4 450.6c-7.6-4.5 1.3 43.1 6.8 56.6 5.5 13.5 15.3 25 14.9 17.3-0.5-7.8-19.2-72.5-21.7-73.9z"/>
		</g>
	</g>
</svg>