<svg version="1.2" xmlns="http://www.w3.org/2000/svg" viewBox="0 0 599 700" width="599" height="700">
	<title>Proyecto nuevo</title>
	<style>
		.s0 { fill: #000000 } 
		.s1 { fill: #433956 } 
		.s2 { fill: #594d6c } 
		.s3 { fill: #a195b3 } 
		.s4 { mix-blend-mode: multiply;fill: #e8e6e8 } 
		.s5 { fill: #e8e6e8 } 
	</style>
	<g id="&lt;Group&gt;">
		<path id="&lt;Path&gt;" class="s0" d="m578.8 61.2q-0.3 40.1-0.7 80.3c-0.7 53.7-1.4 107.4-3.3 161 0 0.7-0.1 1.5-0.6 1.9-0.3 0.4-0.9 0.5-1.4 0.7-1.8 0.9-2.4 3.4-1.9 5.3 0.6 2 1.8 3.7 2.8 5.5 2.4 4.3 2.1 8.4 1.6 13.1-0.6 5.3-0.5 10.8-0.6 16.2q-0.3 17.1-0.7 34.2-0.7 34.2-1.6 68.4-0.9 40.8-2 81.6-0.5 20.7-1.1 41.5c-0.2 9.4 1.7 21.7-2.6 30.3-0.5 1.1-1.7 2-2.9 1.9 1.6 2.4 3.4 4.7 4.1 7.5 1.6 6-0.1 13.6-0.2 19.7q-0.3 11.1-0.7 22.1c0 3.1-1 6.1-2.9 8.5-4.5 5.8-10.8 11.2-18.5 16.3-2.6 1.7-5.6 2.6-8.7 2.5q-13-0.2-26-0.5-20.8-0.4-41.5-0.8c-9.2-0.1-23.3 1.8-29-7.9q-0.7 2.7-1.4 5.5c-0.1 0.6-0.3 1.2-0.8 1.5-0.5 0.5-1.2 0.5-1.8 0.5-30.8 0-61.9-1-92.9-1.2q-41.8-0.2-83.6 0-21 0.1-41.9 0.3-10.5 0.1-20.9 0.3c-4.4 0-12.2 0.2-16-2-1-0.6-1.8-1.3-2.8-1.7-2.1-0.8-4.4 0.3-6.2 1.6-4.1 2.9-6.9 2.6-11.9 2.7q-40 0.9-80.1 1.7c-3.1 0.1-6.1-0.8-8.7-2.5-7.7-5.1-14-10.5-18.5-16.3-1.9-2.4-2.9-5.4-3-8.5q-1.6-56.7-3.1-113.4c-0.1-6.2-0.7-12.4-1-18.6-0.2-4.6 0.5-9.3 5.5-11.1-0.5-2.1-4-1.5-5.5-3.1-0.7-0.7-0.8-1.8-0.9-2.8q-0.5-4.2-0.9-8.5c-0.3-2.9-0.5-6.3 1.4-8.5 2.6-2.9 3.6-4.5 1.8-8.4-1.1-2.5-3.4-3.6-3.2-6.7 0.5-7.8 0.8-15.1 0.6-22.9-0.3-12.9-0.6-25.9-0.9-38.8q-0.7-31.5-1.4-62.9c-0.4-20.4-1.9-40.4 1.3-60.7 0.4-2.2 0.8-4.4 0.1-6.5-0.3-1-0.8-1.8-1.1-2.7-0.5-1.3-0.7-2.6-0.9-4-2.5-17.2-1.4-34.8-1.7-52.2q-0.4-27.7-0.8-55.4-0.6-52-1-104c0-3.4 1.1-6.6 3.1-9.3 5.7-7.3 11.9-13.9 18.9-19.1 2.6-1.9 5.8-3 9-3h478.6c3.2 0 6.4 1.1 9 3 7 5.2 13.2 11.8 18.9 19.1 2 2.7 3.1 5.9 3.1 9.3z"/>
		<path id="&lt;Path&gt;" class="s1" d="m569.6 50q-0.3 40.2-0.8 80.4c-0.6 53.7-1.3 107.4-3.2 161 0 0.7-0.1 1.4-0.6 1.9-0.4 0.4-0.9 0.5-1.4 0.7-1.8 0.9-2.4 3.3-1.9 5.3 0.5 2 1.8 3.6 2.8 5.4 2.3 4.4 2.1 8.5 1.5 13.2-0.6 5.3-0.4 10.8-0.5 16.2q-0.4 17.1-0.7 34.2-0.8 34.2-1.6 68.4-1 40.8-2 81.6-0.5 20.7-1.1 41.5c-0.3 9.3 1.7 21.7-2.6 30.3-0.5 1.1-1.7 2-2.9 1.8 1.6 2.4 3.3 4.8 4.1 7.6 1.6 5.9-0.1 13.6-0.2 19.7q-0.4 11.1-0.7 22.1c-0.1 3.1-1 6.1-2.9 8.5-4.5 5.8-10.9 11.1-18.5 16.3-2.6 1.7-5.7 2.6-8.8 2.5q-12.9-0.3-25.9-0.5-20.8-0.4-41.6-0.8c-9.1-0.2-23.2 1.8-28.9-7.9q-0.7 2.7-1.4 5.5c-0.2 0.5-0.3 1.1-0.8 1.5-0.5 0.4-1.2 0.5-1.8 0.5-30.9 0-62-1-92.9-1.2q-41.8-0.2-83.7-0.1-20.9 0.1-41.8 0.4-10.5 0.1-20.9 0.2c-4.4 0.1-12.2 0.3-16-1.9-1-0.6-1.8-1.4-2.8-1.7-2.1-0.8-4.4 0.3-6.2 1.6-4.2 2.9-6.9 2.6-11.9 2.7q-40 0.9-80.1 1.7c-3.1 0.1-6.1-0.8-8.7-2.5-7.7-5.2-14-10.5-18.5-16.3-1.9-2.4-2.9-5.4-3-8.5q-1.6-56.7-3.1-113.4c-0.1-6.2-0.7-12.4-1-18.7-0.2-4.5 0.5-9.2 5.5-11-0.5-2.1-4-1.5-5.5-3.1-0.7-0.7-0.8-1.8-0.9-2.8q-0.5-4.3-0.9-8.5c-0.3-3-0.5-6.3 1.4-8.5 2.5-2.9 3.6-4.5 1.8-8.4-1.1-2.5-3.4-3.7-3.2-6.7 0.5-7.8 0.7-15.2 0.6-22.9-0.4-12.9-0.6-25.9-0.9-38.8q-0.8-31.5-1.4-63c-0.4-20.4-1.9-40.3 1.3-60.6 0.4-2.2 0.8-4.5 0.1-6.6-0.3-0.9-0.8-1.7-1.1-2.6-0.5-1.3-0.7-2.7-0.9-4-2.5-17.2-1.4-34.8-1.7-52.3q-0.4-27.7-0.8-55.3-0.7-52-1-104.1c0-3.3 1.1-6.6 3.1-9.2 5.7-7.4 11.9-13.9 18.9-19.1 2.6-1.9 5.7-3 9-3h478.6c3.2 0 6.4 1.1 9 3 7 5.2 13.2 11.7 18.8 19.1 2.1 2.6 3.2 5.9 3.2 9.2z"/>
		<path id="&lt;Path&gt;" class="s2" d="m558.3 48.7q0 4.6 0 9.3 0 1.8-0.1 3.7c-0.1 13.3-0.2 26.9-0.3 40.8q0 1.8-0.1 3.6-0.2 20.5-0.4 41.7-0.1 1.5-0.1 3.1-0.4 31.4-0.9 64.5 0 2.1-0.1 4.3-0.2 10-0.3 20.2 0 0.9 0 1.9-0.2 11.1-0.4 22.4-0.1 2-0.1 4.1-0.1 8.2-0.3 16.3c0 1.9 0.6 5.2-0.1 6.9-0.8 2-3.1 2.8-4.4 4.4-2.1 2.8-1 6.8 0.6 9.9 3.9 7.9 3.2 15.3 3 23.9q-0.1 3.4-0.1 6.7-0.4 15.2-0.7 30.7 0 2.2-0.1 4.4-0.1 6.8-0.3 13.6-0.1 3.7-0.2 7.5-0.4 20.5-0.9 41.6c-0.5 21.9-1.1 44.1-1.7 66.9-0.1 3.6-0.1 7.2-0.3 10.7-0.4 12.7-0.6 25.3-0.9 37.9-0.3 11.8 1.2 25.2-1.8 36.7-11.1-3.6-21.8-8.3-32-14.1 9.8 8.1 20.5 15.1 31.8 20.9 0.6 0.3 1.2 0.6 1.5 1.2 0.3 0.6 0.2 1.4 0 2.2-2.9 13.8-1.6 28.9-2 43.2-0.1 1-0.4 2-0.9 2.6-3.5 4.5-9 9.3-16.1 14.1-0.9 0.6-1.9 0.9-2.9 0.9h-0.1c-67.2-1.5-155.7-3.1-243.8-3.1-47.2 0-90.8 0.4-133.3 1.4l-80.1 1.7q-1.6 0-2.9-0.9c-7.2-4.8-12.7-9.5-16.2-14.1-0.5-0.6-0.8-1.6-0.9-2.7q-0.4-14.9-0.8-29.7-0.1-4.6-0.3-9.2-0.5-20.6-1.1-40.7 0-1.6-0.1-3.1c-0.5-10.9-0.5-21.9-0.8-32.8-0.2-5.4 0.2-11.2-0.5-16.5-0.4-3.7-2.5-6.4 0.8-9.7 1.6-1.5 3.7-2.4 5.8-3.3q12.5-5.3 25.1-10.6c3.4-1.5 6.9-2.9 10.6-3.7q-21.5 5.3-42.7 12.1c-1-6.3-0.3-13-0.4-19.4-0.2-6.5-0.5-12.9-0.5-19.4q0-1-0.1-1.9-0.1-5.5-0.2-11-0.4-14.1-0.7-27.9 0-1.5 0-2.9-0.7-27.6-1.2-54.1-0.1-1.9-0.1-3.8-0.6-26.2-1.1-51.5 0-2.4 0-4.9-0.4-17-0.7-33.7 0-2.6-0.1-5.3-0.7-42.3-1.3-82 0-1.5 0-3-0.3-20.4-0.5-40.1-0.1-2.4-0.1-4.7-0.2-22.6-0.4-44.2-0.1-1.3-0.1-2.6-0.1-15.9-0.2-31.4c0-1.1 0.4-2.2 1.1-3.1 5.6-7.3 11.1-12.9 16.9-17.2 0.8-0.6 1.9-1 3-1h478.6c1.1 0 2.2 0.4 3 1 5.8 4.3 11.4 9.9 17 17.2 0.7 0.9 1 2 1 3.1z"/>
		<path id="&lt;Path&gt;" class="s3" d="m558.3 48.7c0 48.4-0.9 96.9-1.6 145.3q-0.4 26.6-0.8 53.2-0.3 13.5-0.5 27-0.2 7-0.3 14.1c-0.1 5-1.1 5.3-3.7 9.2-1.3 2-0.4 4.8 0.8 6.8 4.7 8 2.2 19.5 2 28.5q-0.3 16.7-0.7 33.3-0.7 34.1-1.5 68.1c-1.9-24.8-2.5-49.7-2.4-74.7 0-12.4 0.2-24.9 0.5-37.4 0.1-2.8 0-5.6 0.7-8.3 0.4-1.5 1.3-2.8 1.2-4.4-0.1-2.1-6.6-10.7-4.7-12.4 1.3-1.1 2.5-2.2 3.3-3.7 1.8-3.5 0.5-10.8 0.7-14.6q0.2-8.3 0.4-16.7c0.4-11 0.8-22.1 1.2-33.1 0.8-17.9-1.7-35.9 0.1-53.9 0.7-6.9 1.5-13.7 1.4-20.6 0-7.2-0.9-14.5-1.5-21.7-1.3-15.5-1.5-31.1-0.5-46.6 0.7-11.1 6.2-27.3 0.9-37.7-4.1-7.9-13.5-16.5-22.3-18.7-9.3-2.3-19.2-0.6-28.6-0.2-18.7 0.8-37.5 1-56.3 0.6-16.7-0.4-33.3-2.6-49.8 0-5.8 0.9-11.6 2.1-17.5 2.6-6.1 0.5-12.3 0.1-18.4-0.2-52.7-2.6-104.7-3.4-157.4-2.6-26.5 0.4-53 0.9-79.4 1.5q-19.8 0.5-39.7 1c-10.9 0.3-22.1-2.2-31.2 4.8-3.8 2.9-10.8 8-12.5 12.5-0.5 1.4-0.5 2.9-0.5 4.4 0.9 43.4 2.5 86.8 3.9 130.2 0.7 26.4 1.5 52.8 1.2 79.1-0.1 6.1-1 12.8-0.1 18.8 0.6 4.1 1.9 7.5 2 11.7 0.3 12.5 0.1 25 0.2 37.5 0.2 35.1-1 70.3-2.5 105.3q-0.1 2-0.2 4.1c-3.6-151.3-5.8-280.7-6.5-392.1 0-1.1 0.4-2.2 1.1-3.1 5.6-7.3 11.1-12.9 16.9-17.2 0.8-0.6 1.9-1 3-1h478.6c1.1 0 2.2 0.4 3 1 5.8 4.3 11.4 9.9 17 17.2 0.7 0.9 1 2 1 3.1z"/>
		<g id="&lt;Group&gt;">
			<path id="&lt;Path&gt;" class="s3" d="m542 57c-2.9-3.4-5.8-7-9.3-9.9-9-7.6-21.6-7-32.9-7.3-14.2-0.4-28.4-0.6-42.6-0.9q-30.1-0.7-60.2-0.7c-19.5 0.1-121.4 0.4-140.9 0.9q-29.4-0.8-58.8-0.9-30 0-60.1 0.7c-14.2 0.3-28.4 0.5-42.6 0.9-11.3 0.3-23.9-0.3-32.9 7.3-3.5 2.9-6.4 6.5-9.3 9.9-2.2 2.6-6 4.7-4.5 8.3 3 6.9 11 12.2 17.4 16.3 3.7 2.4 8.5-4.9 10.1-7.1 2.7-3.8 5.3-7.9 8.5-11.5 2-2.3 4-2.7 1.5-5.1-1.9-1.9-3.9-3.7-5.7-5.8-1.1-1.3-4.5 0.5-5.4 1.4-3.8 3.6-7.3 7.6-11.2 11.1-2.3 2 4 0.9 5.1-0.4 2.4-2.7 5.2-5.4 8.1-7.6 2-1.4 1.3-1.1 2.8 0.2 1.1 0.9 2.4 2.2 2.3 3.7-0.1 0.5-0.3 1.1-0.6 1.6-3.1 5.5-8.7 9.5-12.3 14.8-0.8 1.2-12-9.3-13.1-10.3-2.6-2.6-2.8-4.4-0.2-7.2 4-4.3 8.1-9.4 13.2-12.5 7.5-4.4 16.3-3 24.8-3.1 14-0.3 28.3-0.4 42.3-0.8 21.2-0.5 41.7-1.5 62.9-1.4 10.5 0 20.9 0.2 31.3 0.5 28 0.8 138.2-0.5 166.3-0.5 21.2-0.1 41.7 0.9 62.9 1.4 14 0.4 28.3 0.5 42.3 0.8 8.5 0.1 17.3-1.3 24.7 3.1 5.2 3.1 9.3 8.2 13.3 12.5 2.6 2.8 2.4 4.6-0.3 7.2-1 1-12.2 11.5-13.1 10.3-3.6-5.3-9.1-9.3-12.2-14.8-0.3-0.5-0.6-1.1-0.6-1.6-0.1-1.5 1.2-2.8 2.3-3.7 1.5-1.3 0.8-1.6 2.8-0.2 2.9 2.2 5.7 4.9 8 7.6 1.2 1.3 7.5 2.4 5.2 0.4-3.9-3.5-7.4-7.5-11.2-11.1-0.9-0.9-4.3-2.7-5.4-1.4-1.8 2.1-3.8 3.9-5.7 5.8-2.5 2.4-0.5 2.8 1.5 5.1 3.2 3.6 5.8 7.7 8.5 11.5 1.6 2.2 6.4 9.5 10.1 7.1 6.4-4.1 14.4-9.4 17.4-16.3 1.5-3.6-2.3-5.7-4.5-8.3z"/>
		</g>
		<g id="&lt;Group&gt;">
			<path id="&lt;Path&gt;" class="s1" d="m541.5 55.3c-2.9-3.4-5.8-6.9-9.3-9.9-9-7.6-21.5-7-32.9-7.3-14.2-0.3-28.4-0.6-42.6-0.9q-30.1-0.7-60.1-0.6c-19.6 0-121.5 0.3-141 0.8q-29.4-0.8-58.7-0.8-30.1-0.1-60.2 0.6c-14.2 0.3-28.4 0.6-42.6 0.9-11.3 0.3-23.9-0.3-32.9 7.3-3.5 3-6.3 6.5-9.3 9.9-2.2 2.6-6 4.7-4.5 8.3 3.1 6.9 11 12.3 17.4 16.4 3.7 2.3 8.5-5 10.1-7.2 2.7-3.7 5.3-7.9 8.5-11.5 2-2.3 4-2.6 1.5-5.1-1.9-1.9-3.9-3.7-5.7-5.7-1.1-1.4-4.5 0.4-5.4 1.3-3.8 3.6-7.2 7.6-11.2 11.1-2.3 2 4 1 5.2-0.4 2.3-2.7 5.1-5.4 8-7.5 2-1.5 1.3-1.2 2.9 0.1 1 0.9 2.3 2.2 2.2 3.7 0 0.6-0.3 1.1-0.5 1.6-3.2 5.5-8.7 9.6-12.3 14.8-0.9 1.3-12-9.3-13.1-10.3-2.7-2.5-2.8-4.4-0.2-7.2 3.9-4.2 8-9.4 13.2-12.4 7.5-4.5 16.3-3.1 24.7-3.2 14-0.2 28.3-0.4 42.3-0.7 21.2-0.5 41.7-1.6 62.9-1.5 10.5 0 20.9 0.3 31.3 0.6 28.1 0.7 138.3-0.5 166.3-0.6 21.2-0.1 41.7 1 62.9 1.5 14 0.3 28.3 0.5 42.3 0.7 8.5 0.1 17.3-1.3 24.8 3.2 5.1 3 9.2 8.2 13.2 12.4 2.6 2.8 2.4 4.7-0.2 7.2-1.1 1-12.3 11.6-13.1 10.3-3.6-5.2-9.2-9.3-12.3-14.8-0.3-0.5-0.5-1-0.6-1.6-0.1-1.5 1.2-2.8 2.3-3.7 1.5-1.3 0.8-1.6 2.8-0.1 3 2.1 5.7 4.8 8.1 7.5 1.1 1.4 7.4 2.4 5.1 0.4-3.9-3.5-7.4-7.5-11.2-11.1-0.9-0.9-4.3-2.7-5.4-1.3-1.8 2-3.8 3.8-5.7 5.7-2.5 2.5-0.5 2.8 1.6 5.1 3.1 3.6 5.8 7.8 8.4 11.5 1.6 2.2 6.4 9.5 10.1 7.2 6.4-4.1 14.4-9.5 17.4-16.4 1.6-3.6-2.3-5.7-4.5-8.3z"/>
		</g>
		<g id="&lt;Group&gt;">
			<path id="&lt;Path&gt;" class="s3" d="m538.4 633c-2.8 3.3-5.6 6.8-9 9.6-8.8 7.4-21 6.8-32.1 7.1-13.8 0.4-27.6 0.6-41.4 0.9q-29.3 0.7-58.6 0.6c-19 0-118.2-0.3-137.2-0.8q-28.6 0.8-57.2 0.8-29.2 0.1-58.5-0.6c-13.8-0.3-27.6-0.5-41.5-0.9-11-0.3-23.2 0.3-32-7.1-3.4-2.8-6.2-6.3-9-9.6-2.2-2.6-5.9-4.6-4.4-8.1 2.9-6.7 10.7-11.9 16.9-15.9 3.6-2.3 8.3 4.8 9.8 7 2.6 3.6 5.2 7.7 8.3 11.1 2 2.3 3.9 2.6 1.5 5-1.9 1.9-3.9 3.6-5.5 5.6-1.1 1.3-4.4-0.4-5.3-1.3-3.7-3.5-7.1-7.4-11-10.8-2.2-1.9 3.9-0.9 5.1 0.4 2.2 2.6 5 5.2 7.8 7.3 2 1.4 1.3 1.1 2.8-0.1 1-0.9 2.2-2.2 2.2-3.6-0.1-0.5-0.3-1.1-0.6-1.5-3-5.4-8.4-9.4-11.9-14.5-0.8-1.2-11.7 9.1-12.8 10.1-2.6 2.4-2.7 4.2-0.2 6.9 3.9 4.2 7.9 9.2 12.9 12.2 7.3 4.3 15.8 2.9 24 3.1 13.7 0.2 27.6 0.4 41.3 0.7 20.6 0.5 40.6 1.5 61.2 1.4 10.1 0 20.3-0.3 30.5-0.5 27.2-0.8 134.5 0.4 161.8 0.5 20.6 0.1 40.6-0.9 61.2-1.4 13.7-0.3 27.6-0.5 41.2-0.7 8.2-0.2 16.8 1.2 24.1-3.1 5-3 9-8 12.9-12.2 2.5-2.7 2.4-4.5-0.2-6.9-1.1-1-12-11.3-12.8-10.1-3.5 5.1-8.9 9.1-12 14.5-0.2 0.4-0.5 1-0.5 1.5-0.1 1.4 1.1 2.7 2.2 3.6 1.5 1.2 0.8 1.5 2.8 0.1 2.8-2.1 5.5-4.7 7.8-7.3 1.1-1.3 7.2-2.3 5-0.4-3.8 3.4-7.2 7.3-10.9 10.8-0.9 0.9-4.2 2.6-5.3 1.3-1.7-2-3.6-3.7-5.5-5.6-2.4-2.4-0.5-2.7 1.5-5 3.1-3.4 5.6-7.5 8.3-11.1 1.5-2.2 6.1-9.3 9.8-7 6.2 4 13.9 9.2 16.9 15.9 1.5 3.5-2.3 5.5-4.4 8.1z"/>
		</g>
		<g id="&lt;Group&gt;">
			<path id="&lt;Path&gt;" class="s1" d="m538.1 631.2c-2.8 3.3-5.6 6.8-9 9.6-8.8 7.4-21 6.8-32.1 7.1-13.8 0.4-27.6 0.6-41.4 0.9q-29.3 0.7-58.6 0.6c-19 0-118.2-0.3-137.2-0.8q-28.6 0.8-57.2 0.8-29.2 0.1-58.5-0.6c-13.8-0.3-27.6-0.5-41.5-0.9-11-0.3-23.2 0.3-32-7.1-3.4-2.8-6.2-6.3-9-9.6-2.2-2.6-5.9-4.6-4.4-8.1 2.9-6.7 10.7-11.9 16.9-15.9 3.6-2.3 8.3 4.8 9.8 7 2.6 3.6 5.2 7.7 8.3 11.1 2 2.3 3.9 2.6 1.5 5-1.9 1.9-3.8 3.6-5.5 5.6-1.1 1.3-4.4-0.4-5.3-1.3-3.7-3.5-7.1-7.4-10.9-10.8-2.2-2 3.8-0.9 5 0.4 2.3 2.6 5 5.2 7.8 7.3 2 1.4 1.3 1.1 2.8-0.1 1-0.9 2.3-2.2 2.2-3.6-0.1-0.5-0.3-1.1-0.6-1.6-3-5.3-8.4-9.3-11.9-14.4-0.8-1.2-11.7 9-12.8 10.1-2.6 2.4-2.7 4.2-0.2 6.9 3.9 4.2 7.9 9.2 12.9 12.2 7.3 4.3 15.8 2.9 24 3.1 13.7 0.2 27.6 0.4 41.3 0.7 20.6 0.4 40.6 1.5 61.2 1.4 10.1 0 20.3-0.3 30.5-0.5 27.2-0.8 134.5 0.4 161.8 0.5 20.6 0.1 40.6-1 61.2-1.4 13.7-0.3 27.6-0.5 41.2-0.7 8.3-0.2 16.8 1.2 24.1-3.1 5-3 9-8 12.9-12.2 2.5-2.7 2.4-4.5-0.2-6.9-1.1-1.1-12-11.3-12.8-10.1-3.5 5.1-8.9 9.1-12 14.4-0.2 0.5-0.5 1.1-0.5 1.6-0.1 1.4 1.2 2.7 2.2 3.6 1.5 1.2 0.8 1.5 2.8 0.1 2.8-2.1 5.5-4.7 7.8-7.3 1.1-1.3 7.2-2.4 5-0.4-3.8 3.4-7.2 7.3-10.9 10.8-0.9 0.9-4.2 2.6-5.3 1.3-1.7-2-3.6-3.7-5.5-5.6-2.4-2.4-0.5-2.7 1.5-5 3.1-3.4 5.6-7.5 8.3-11.1 1.5-2.2 6.2-9.3 9.8-7 6.2 4 14 9.2 16.9 15.9 1.5 3.5-2.2 5.5-4.4 8.1z"/>
		</g>
		<g id="&lt;Group&gt;">
			<path id="&lt;Path&gt;" class="s4" d="m72.1 572.3c-0.2-1.1-1.1-1.8-1.7-2.5-0.7-0.8-3.9 0.6-3.9 1.6 0.1 1 0 2.1 0.3 3 0.4 1.1 1.4 1.6 2.4 1.9 0.7 0.3 2.1-0.3 2.4-1 0.4-0.9 0.8-2 0.5-3z"/>
			<path id="&lt;Path&gt;" class="s4" d="m150.8 623.5c-0.3-0.3-0.3-0.7-0.6-1.1-0.3-0.4-0.8-0.6-1.3-0.8-1.2-0.5-2.6-0.6-3.8-1-0.9-0.2-1.8 0.2-2.5 0.6-0.4 0.2-1.8 1-1.5 1.6 0.6 1 1.2 2 2.4 2.4 1.6 0.6 3.2 0.2 4.9 0 0.3 0 3-1.1 2.4-1.7z"/>
		</g>
		<g id="&lt;Group&gt;">
		</g>
		<path id="&lt;Path&gt;" class="s4" d="m464.1 613.2c-0.2 0-0.8 0.2-0.7 0.5l0.2 0.7c0.1 0.2 0.4 0.1 0.5 0 0.1 0 0.4-0.1 0.4-0.3q0.1-0.4 0.2-0.9c0.1-0.2-0.5-0.1-0.6 0z"/>
		<path id="&lt;Path&gt;" class="s4" d="m530.4 532.7c-0.6-0.9-1.7-0.9-2.6-0.9-1.6 0-3.3 0.6-4.8 1.2-0.7 0.4-1.8 1-2.3 1.7q-0.2 0.2-0.3 0.5-0.2 0.5 0.3 0.8-0.9-0.9-0.6 0.1 0 0.1 0 0.2c0.3 0.5 0.9 0.6 1.5 0.7 0.9 0.2 1.8 0.1 2.7 0q0.4-0.1 0.8-0.1c1.2-0.2 2.3-0.6 3.4-1.2 0.6-0.3 1.6-0.8 1.8-1.6 0.2-0.5 0.4-0.9 0.1-1.4z"/>
		<path id="&lt;Path&gt;" class="s4" d="m427.9 564.5c-0.1-0.2-0.1-0.5-0.4-0.6-0.2-0.2-0.6-0.3-0.9-0.4-0.9-0.2-2.6 0.5-3.3 1.1-0.5 0.5-1 0.9-1.2 1.6-0.2 0.5-0.4 1.1-0.3 1.6 0.1 0.3 0.5 0.9 0.8 1 0.7 0.5 1.7 0.2 2.4 0 0.8-0.2 1.6-0.6 2.2-1.3 0.4-0.4 0.8-1.1 0.9-1.7 0.1-0.4 0-0.8-0.2-1.3z"/>
		<path id="&lt;Path&gt;" class="s4" d="m199.8 461.8c-1 0.2-1.9 0.6-2.6 1.3-1.1 1.2-2.4 2.2-3.2 3.7-0.6 1.1-0.7 1.6-0.3 2.8 0.3 0.8 2.3-0.3 2.6-0.6 1.5-1 2.7-2 3.8-3.5 0.8-1 1-2 1.3-3.2 0.2-0.8-1.3-0.5-1.6-0.5z"/>
		<path id="&lt;Path&gt;" class="s4" d="m119.5 222.3c-1.7-1.3-3.9-2.1-5.7-3.1-0.2-0.1-1.6 0.3-1.4 0.6 0.8 1.4 1.5 3.1 2.6 4.3 1.3 1.5 3.3 2.3 5.1 3 0.3 0.1 2.2-0.2 2-0.8-0.6-1.6-1.3-3-2.6-4z"/>
		<g id="&lt;Group&gt;">
			<path id="&lt;Path&gt;" class="s4" d="m466.8 251.3q-0.7 0.1 0 0z"/>
			<path id="&lt;Path&gt;" class="s4" d="m475 247.4c-1.7-0.2-3.1 0-4.7 0.5-1.2 0.4-2.3 0.8-3.3 1.6-0.5 0.3-1.3 0.7-1.4 1.3 0 0.6 0.8 0.5 1.2 0.5q0.6-0.1 1.2-0.3 1.1-0.3 2.2-0.7c1.3-0.5 2.6-1.3 4-1.8 0.1-0.1 1.7-1 0.8-1.1z"/>
		</g>
		<path id="&lt;Path&gt;" class="s4" d="m457.1 470.3c-0.7-0.6-1.5-0.9-2.2-1.3-0.6-0.3-3.1 0.6-2.5 1.2 0.6 0.5 1.1 1.1 1.8 1.4 0.8 0.4 1.6 0.9 2.4 1 0.4 0.1 2-0.2 1.9-0.8-0.1-0.6-1-1.1-1.4-1.5z"/>
		<g id="&lt;Group&gt;" style="mix-blend-mode: multiply">
			<path id="&lt;Path&gt;" class="s5" d="m464.6 76.8q-0.3 0-0.4 0.1 0.1-0.1 0.4-0.1z"/>
			<path id="&lt;Path&gt;" class="s5" d="m464.2 76.9q-0.1 0 0 0z"/>
		</g>
		<g id="&lt;Group&gt;">
			<path id="&lt;Path&gt;" class="s4" d="m399 69.6c0.1-0.7-0.4-1-0.8-1.5-0.5-0.6-1.4-0.4-2.1-0.3-0.5 0.1-1.1 0.3-1.7 0.5 0 0.1 0 0.1-0.1 0.1q0 0.1-0.1 0.1c-0.8 0.5-1.5 1-2.2 1.8-0.7 0.7-1.1 1.4-0.7 2.3 0.2 0.5 1 0.6 1.5 0.6 1.1 0 1.9 0.1 3-0.4 0.6-0.3 1.1-0.7 1.6-1.1 0.8-0.5 1.4-1.1 1.6-2.1z"/>
			<path id="&lt;Path&gt;" class="s4" d="m394.3 68.4c-0.4 0.2-0.8 0.4-1.1 0.7 0.5-0.3 0.9-0.6 1.1-0.7z"/>
		</g>
		<path id="&lt;Path&gt;" class="s4" d="m74.2 204.7c-0.1-0.2-0.2-0.3-0.3-0.5q-0.4-0.4-0.7-0.8c-0.3-0.3-0.9 0-1.2 0.1-0.2 0.1-1 0.4-0.7 0.7q0.5 0.4 0.9 0.8c0.2 0.1 0.3 0.3 0.5 0.4 0.2 0.1 0.5 0.1 0.7 0.2 0.2 0.1 0.9-0.1 0.9-0.4 0-0.2 0-0.4-0.1-0.5z"/>
		<path id="&lt;Path&gt;" class="s4" d="m86.9 145.6c-0.5-0.4-1.1-0.7-1.6-1.1-0.2-0.1-1.3 0.2-1.1 0.5 0.3 0.4 0.5 0.9 0.8 1.3 0.4 0.5 1 0.8 1.5 1.1 0.2 0.2 1.5-0.2 1.3-0.5-0.3-0.4-0.6-0.9-0.9-1.3z"/>
		<g id="&lt;Group&gt;">
			<path id="&lt;Path&gt;" class="s4" d="m363 67.5q0.1-0.1 0.2-0.2-0.2 0.2-0.5 0.4 0.1-0.1 0.3-0.2z"/>
			<path id="&lt;Path&gt;" class="s4" d="m363.4 67.2q-0.1 0.1-0.1 0.1-0.1 0-0.1 0z"/>
			<path id="&lt;Path&gt;" class="s4" d="m364.4 64.3c-0.8 0.1-1.9 0.4-2.4 1.1-0.3 0.4-0.6 0.8-0.9 1.2-0.2 0.4-0.2 0.7-0.2 1.1 0.1 0.4 0.9 0.2 1 0.2 0.5-0.1 1-0.3 1.4-0.6q0.1-0.1 0.2-0.1 0.5-0.4 0.9-0.8c0.4-0.4 0.7-1 1-1.5 0.4-0.7-0.5-0.7-1-0.6z"/>
		</g>
		<path id="&lt;Path&gt;" class="s4" d="m341.9 596.5c-0.9-0.6-3.1 0.5-3.6 1.3-0.5 0.9-0.9 1.9-0.6 2.9 0.3 1.1 1.1 1.5 2.1 1.9 0.6 0.4 2-0.1 2.4-0.7 0.7-1.1 1.2-1.8 1.2-3.1 0-1.1-0.7-1.7-1.5-2.3z"/>
		<path id="&lt;Path&gt;" class="s4" d="m230.2 607.3q-0.2-0.4-0.3-0.8c-0.1-0.3-0.8-0.1-0.9 0-0.1 0-0.9 0.3-0.7 0.6q0.2 0.4 0.5 0.8c0.2 0.2 0.3 0.5 0.6 0.7 0.2 0.1 0.9-0.1 1-0.4 0.1-0.3-0.1-0.6-0.2-0.9z"/>
		<path id="&lt;Path&gt;" class="s4" d="m264 619.9c-0.3 0-1.2 0.5-0.7 0.5 0.3 0 1.2-0.5 0.7-0.5z"/>
		<path id="&lt;Path&gt;" class="s4" d="m394.8 613.7c-0.1-0.3-0.3-0.5-0.5-0.7q-0.5-0.7-1-1.4c-0.6-0.7-2.1-0.1-2.7 0.2-0.3 0.1-2.2 1-1.4 1.6q0.7 0.5 1.5 1.1c0.2 0.2 0.4 0.4 0.7 0.5 0.3 0.2 0.7 0.3 1.1 0.4 0.4 0.1 1-0.1 1.4-0.3 0.2-0.1 0.8-0.3 0.9-0.7 0-0.2 0.1-0.5 0-0.7z"/>
	</g>
</svg>