<svg version="1.2" xmlns="http://www.w3.org/2000/svg" viewBox="0 0 599 700" width="599" height="700">
	<title>Proyecto nuevo</title>
	<defs>
		<linearGradient id="g1" x2="1" gradientUnits="userSpaceOnUse" gradientTransform="matrix(0,-895.037,882.055,0,1.322,805.638)">
			<stop offset="0" stop-color="#393252"/>
			<stop offset="1" stop-color="#7a6583"/>
		</linearGradient>
		<linearGradient id="g2" x2="1" gradientUnits="userSpaceOnUse" gradientTransform="matrix(0,585.137,-590.267,0,525.409,81.052)">
			<stop offset="0" stop-color="#8b74b5"/>
			<stop offset="1" stop-color="#3c2657"/>
		</linearGradient>
		<linearGradient id="g3" x2="1" gradientUnits="userSpaceOnUse" gradientTransform="matrix(0,103.119,-35.316,0,649.149,200.069)">
			<stop offset="0" stop-color="#3f3252"/>
			<stop offset="1" stop-color="#4f4766"/>
		</linearGradient>
		<linearGradient id="g4" x2="1" gradientUnits="userSpaceOnUse" gradientTransform="matrix(-1.583,305.055,-59.428,-0.308,305.951,381.132)">
			<stop offset="0" stop-color="#3f3252"/>
			<stop offset="1" stop-color="#4f4766"/>
		</linearGradient>
		<linearGradient id="g5" x2="1" gradientUnits="userSpaceOnUse" gradientTransform="matrix(44.861,-209.575,246.086,52.677,7.291,643.782)">
			<stop offset=".011" stop-color="#187447"/>
			<stop offset="1" stop-color="#229956"/>
		</linearGradient>
		<linearGradient id="g6" x2="1" gradientUnits="userSpaceOnUse" gradientTransform="matrix(-40.726,-120.054,255.987,-86.839,254.463,631.703)">
			<stop offset=".011" stop-color="#187447"/>
			<stop offset="1" stop-color="#229956"/>
		</linearGradient>
		<linearGradient id="g7" x2="1" gradientUnits="userSpaceOnUse" gradientTransform="matrix(-4.696,-64.847,40.927,-2.964,24.186,511.375)">
			<stop offset=".011" stop-color="#187447"/>
			<stop offset="1" stop-color="#229956"/>
		</linearGradient>
		<linearGradient id="g8" x2="1" gradientUnits="userSpaceOnUse" gradientTransform="matrix(51.736,0,0,119.48,536.58,336.647)">
			<stop offset=".011" stop-color="#187447"/>
			<stop offset="1" stop-color="#229956"/>
		</linearGradient>
		<linearGradient id="g9" x2="1" gradientUnits="userSpaceOnUse" gradientTransform="matrix(29.28,0,0,39.524,540.466,288.483)">
			<stop offset=".011" stop-color="#187447"/>
			<stop offset="1" stop-color="#229956"/>
		</linearGradient>
	</defs>
	<style>
		.s0 { fill: url(#g1) } 
		.s1 { fill: #45365c } 
		.s2 { opacity: .4;mix-blend-mode: multiply;fill: #6e1a46 } 
		.s3 { opacity: .4;mix-blend-mode: multiply;fill: #574b87 } 
		.s4 { opacity: .2;mix-blend-mode: multiply;fill: url(#g2) } 
		.s5 { opacity: .2;mix-blend-mode: multiply;fill: #6e1a46 } 
		.s6 { fill: #5f5270 } 
		.s7 { fill: #7b6a91 } 
		.s8 { fill: url(#g3) } 
		.s9 { fill: url(#g4) } 
		.s10 { opacity: .1;mix-blend-mode: screen;fill: #7c5e7d } 
		.s11 { opacity: .3;mix-blend-mode: soft-light;fill: #e0deea } 
		.s12 { fill: #a295b3 } 
		.s13 { opacity: .1;mix-blend-mode: multiply;fill: #803689 } 
		.s14 { fill: url(#g5) } 
		.s15 { fill: url(#g6) } 
		.s16 { fill: url(#g7) } 
		.s17 { fill: url(#g8) } 
		.s18 { mix-blend-mode: multiply;fill: #89c2fe } 
		.s19 { fill: url(#g9) } 
		.s20 { fill: #28b566 } 
		.s21 { opacity: .5;mix-blend-mode: screen;fill: #003611 } 
		.s22 { opacity: .4;mix-blend-mode: multiply;fill: #361a6e } 
		.s23 { opacity: .2;mix-blend-mode: multiply;fill: #3cff59 } 
	</style>
	<g id="&lt;Group&gt;">
		<g id="&lt;Group&gt;">
			<g id="&lt;Group&gt;">
				<path id="&lt;Path&gt;" class="s0" d="m588 257.5c-0.8 88.4-4 192.1-8.7 268.7-0.5 8.7-1.1 17.1-1.7 25-3.1 44.2-6.8 75.7-10.8 83.7-0.4 0.8-0.8 1.3-1.2 1.6-8.8 7-113.2 11.4-226.7 12.7q-7.8 0.1-15.5 0.2c-134.8 1.1-276.8-2.2-283.9-11.1-16.1-20.2-41.4-431-23.4-535.3 1.9-11.5 4.4-19.3 7.6-22.4 2.5-2.5 13.5-4.8 30.6-6.9 6.6-0.8 14.1-1.6 22.4-2.3q0.2 0 0.4 0c4-0.4 8.2-0.7 12.5-1 5-0.4 10.3-0.8 15.8-1.1 152.4-9.9 464.4-10 476 9.5 2.4 4 4.1 19.6 5.2 43.2q0 0 0 0.2c1.6 32.9 2 81.2 1.4 135.3z"/>
				<path id="&lt;Path&gt;" class="s1" d="m588 261.4c-0.2 18.6-0.5 37.9-0.9 57.4-0.1 5.3-0.2 10.6-0.3 16q0 0.4 0 0.7-0.2 8.4-0.4 16.8c-0.3 11.2-0.6 22.5-1 33.6q-0.1 4.2-0.2 8.3-0.2 4.2-0.3 8.4c-0.1 2.7-0.2 5.5-0.3 8.3 0 2.7-0.2 5.5-0.3 8.2-0.1 3.8-0.3 7.5-0.4 11.2q-0.5 14.8-1.2 29.2-0.3 6.5-0.6 13c0 2.1-0.2 4.3-0.3 6.4q-0.1 1.9-0.2 3.8 0 0.7 0 1.3-0.3 5.1-0.5 10-0.1 1.1-0.1 2.3-0.2 2.5-0.3 5.1-0.2 3.8-0.4 7.5c-0.1 2.2-0.2 4.4-0.4 6.5q-0.3 5.5-0.6 10.8-0.3 5.2-0.7 10.1 0 1.7-0.2 3.3-0.4 6-0.8 11.6 0 0.6-0.1 1.2-0.1 1.6-0.2 3.1-0.1 2-0.3 3.8-0.1 2-0.3 4c-0.6 8.3-1.3 16-2 23.1q-0.2 2.1-0.4 4.1-0.8 7.8-1.6 14.5-0.3 2-0.5 3.9c-0.2 2-0.5 3.9-0.8 5.7-0.1 1.1-0.3 2.2-0.5 3.2 0 0.3-0.1 0.7-0.1 0.9q-0.2 1.1-0.4 2.1c-0.2 1.2-0.4 2.3-0.6 3.3q-0.1 0.7-0.3 1.3c-0.2 1.1-0.4 2.1-0.6 3q-0.1 0.5-0.3 1.1c-0.6 2.3-1.2 4.1-1.8 5.4-0.4 0.8-0.8 1.3-1.2 1.6-1.5 1.2-5.9 2.4-12.6 3.4q-0.9 0.1-1.9 0.3-4.9 0.7-11.2 1.3-2.5 0.3-5.2 0.5-5.4 0.6-11.7 1-3.1 0.3-6.4 0.5c-2.1 0.2-4.4 0.3-6.7 0.4q-1.8 0.2-3.5 0.3c-1.2 0-2.4 0.1-3.6 0.2q-5.5 0.3-11.3 0.6c-0.3 0-0.7 0-1 0.1-3.1 0.1-6.3 0.3-9.6 0.4q-0.7 0-1.4 0.1-9.1 0.4-18.8 0.8-10.5 0.4-21.7 0.7-4.2 0.1-8.4 0.3c-4.8 0.2-9.6 0.3-14.5 0.4q-2.9 0.1-5.9 0.2-4.5 0.1-9 0.2c-2 0-3.9 0-5.9 0.1q-4.5 0.1-9.1 0.2-2.7 0-5.4 0.1-6.5 0.1-13.2 0.2-1.1 0-2.4 0c-3.3 0.1-6.7 0.1-10.1 0.2h-0.4c-3.5 0-7 0.1-10.5 0.1q-2.7 0.1-5.3 0.1-7.8 0.1-15.5 0.2-9.6 0-19.3 0.1-3.3 0-6.7 0-12.7 0.1-25.2 0.1c-117.4 0-226.5-3.5-232.7-11.3-7.7-9.6-17.3-107-23.5-217.8q-0.7-11.6-1.3-23.3-0.6-13.4-1.2-26.9-0.5-11.9-1-23.8-0.2-5-0.4-10c-0.4-10.9-0.7-21.8-1-32.5v-0.9c-0.8-27.8-1.2-54.9-1.2-80 0-15.1 0.1-29.5 0.5-42.9 0.2-12.3 0.7-23.7 1.3-34.2q0.1-0.4 0.1-0.8c0.3-5.9 0.7-11.4 1.2-16.6 0.1-1.1 0.1-2.2 0.2-3.3 0 0 0.1 0 0-0.1 0.3-3 0.6-6 1-8.8q0-0.1 0-0.2 0.2-2 0.5-3.9 0.1-0.8 0.2-1.6 0.5-4.1 1.2-7.7v-0.1q0.3-1.7 0.6-3.3 0.1-0.4 0.1-0.7 0.4-2 0.8-3.8 1.1-4.6 2.3-7.8c0.2-0.5 0.4-0.9 0.5-1.3 0.2-0.4 0.3-0.8 0.5-1.2q0.5-1.1 1.1-2c0.5-0.9 1.1-1.6 1.7-2.2 0 0 1.6 501.1 36.4 520.6 28.2 15.9 456.2 13.8 478.7-0.8q0.3-0.1 0.4-0.2c11.2-9.4 27.2-198.8 37.5-336.4 5.8-77.5 9.7-138.5 9.9-141.6 1.6 33.6 2 83.5 1.4 139.2z"/>
				<path id="&lt;Path&gt;" class="s2" d="m566.8 634.9c0 0-0.1 0-0.1 0q-0.2 0.6-0.5 1-0.1 0.1-0.2 0.2 0 0.1-0.1 0.2-0.2 0.2-0.3 0.2c-19.7 15.5-512.8 18.5-526.1 1.8 0 0 3.3-29.1 20.6-37.1 28.2 15.9 456.2 13.8 478.7-0.8 1.5 0.3 2.5 0.6 2.9 0.8 6.7 5.1 17.8 22 25.1 33.7z"/>
				<path id="&lt;Path&gt;" class="s3" d="m529 273.3c-0.3 22.1-0.8 45.1-1.5 67.9q0 0 0 0c0 0.1 0 0.7-0.1 1.5-0.5 16.9-1 33.8-1.7 50.2-1 24.8-2.1 48.4-3.5 69.4-0.4 6.8-0.8 13.4-1.3 19.6-2.5 34.6-5.4 59.2-8.6 65.4q-0.2 0.4-0.4 0.7-0.3 0.4-0.6 0.6c-2.7 2.1-16.4 3.9-37.4 5.3-34 2.4-87.2 4-143.1 4.6-4.1 0.1-8.3 0.1-12.4 0.1-64.7 0.6-131.5-0.1-175.6-2.3-29-1.5-48.2-3.5-50.5-6.3-7.2-8.9-16.8-115-21.2-220.5-3.4-81.6-3.7-162.7 2.6-198.3 1.5-9.1 3.5-15.1 6-17.5 1.3-1.3 5.2-2.4 11.3-3.6 3.6-0.6 8-1.2 13.1-1.9q7.9-0.9 17.9-1.8 10.4-0.9 22.8-1.6c121.4-7.8 369.9-7.8 379.1 7.5 1.6 2.6 2.8 11.7 3.7 25.5q0.3 3.9 0.5 8.3c0 0 0 0 0 0.1 1.4 29.9 1.6 76.3 0.9 127.1z"/>
				<path id="&lt;Path&gt;" class="s4" d="m529 273.3c-0.3 22.1-0.8 45.1-1.5 67.9q0 0 0 0c0 0.1 0 0.7-0.1 1.5-0.5 16.9-1 33.7-1.7 50v0.2c-1 24.8-2.1 48.4-3.5 69.4-0.4 6.8-0.8 13.4-1.3 19.6-2.5 34.6-5.4 59.2-8.6 65.4q-0.2 0.4-0.4 0.7-0.3 0.4-0.6 0.6c-2.7 2.1-16.4 3.9-37.4 5.3 8.6-2.6 20.3-7.7 28.4-17 12.3-14.1 17-317 5.7-396.6-1.6-11.1-3.5-17.9-5.7-18.9-18.3-7.8-379.6-11.8-402.8 5.8-10 7.5-13.2 81.9-12.8 165.4 0 0 0 0 0 0 0.4 110.8 7.2 237.5 12.8 244.3 9.8 12 43.5 19.4 43.5 19.4q0.1 0-0.2 0c-29-1.5-48.2-3.5-50.5-6.3 0-0.1-0.1-0.2-0.2-0.3q-0.2-0.3-0.5-0.8c-0.9-1.9-1.8-5.2-2.8-9.8-0.1-0.4-0.2-0.9-0.3-1.3-0.1-0.4-0.1-0.8-0.2-1.3-0.1-0.5-0.2-1-0.4-1.6-0.1-0.8-0.2-1.6-0.4-2.4-0.4-2.4-0.8-5-1.2-7.8-0.2-1-0.3-2-0.5-3.1-0.7-5.2-1.5-11.1-2.2-17.5-0.2-1.6-0.4-3.2-0.6-4.8q-0.8-7.8-1.7-16.5-0.3-3.3-0.7-6.8 0-0.4 0-0.8-0.2-1.5-0.3-3.1c-0.2-1.6-0.3-3.2-0.4-4.7-0.1-1.1-0.2-2.2-0.3-3.2-0.2-1.7-0.3-3.3-0.4-5q-0.3-2.7-0.5-5.5c-0.1-0.9-0.2-1.9-0.2-2.8-0.2-1.7-0.3-3.4-0.5-5-0.2-3.1-0.4-6.3-0.7-9.5-0.1-2-0.3-4-0.4-6q-0.5-6.9-1-13.9c-0.1-1.6-0.2-3.1-0.3-4.6q-0.2-3.3-0.5-6.6-0.2-3.7-0.4-7.5-0.6-9.5-1.2-19.2-0.4-7.2-0.8-14.6-0.4-8.5-0.8-17.1c-0.2-3.4-0.3-6.7-0.5-10-0.1-2.4-0.2-4.9-0.3-7.4-3.4-81.6-3.7-162.7 2.6-198.3 1.5-9.1 3.5-15.1 6-17.5 1.3-1.3 5.2-2.4 11.3-3.6 3.6-0.6 8-1.2 13.1-1.9q7.9-0.9 17.9-1.8 10.4-0.9 22.8-1.6c121.4-7.8 369.9-7.8 379.1 7.5 1.6 2.6 2.8 11.7 3.7 25.5q0.3 3.9 0.5 8.3c0 0 0 0 0 0.1 1.4 29.9 1.6 76.3 0.9 127.1z"/>
				<path id="&lt;Path&gt;" class="s5" d="m523.9 112.3c0 0-13.5 7.1-21.6 9.1-18.3-7.8-379.6-11.8-402.8 5.8 0 0-16.7-9.6-19.8-13.5 1.3-1.3 5.2-2.4 11.3-3.6 3.6-0.6 8-1.2 13.1-1.9q7.9-0.9 17.9-1.8 10.4-0.9 22.8-1.6c121.4-7.8 369.9-7.8 379.1 7.5z"/>
				<path id="&lt;Path&gt;" class="s6" d="m151.7 556.3c0 0 57.3 6.8 139.9 6.8 82.5 0 172.2-8.5 172.2-8.5 0 0-153.3 3.3-312.1 1.7z"/>
				<path id="&lt;Path&gt;" class="s7" d="m528.7 161.4c0 0 3.4 30.7 7.5 38.1 4 7.4 17 19.4 13.5 47.8-3.5 28.5-8.6 39.2-14.2 56.2-5.7 17.1-8.3 47.5-8.3 47.5 0 0 0.7-62.7 0-70.3-0.7-7.5 1.5-119.3 1.5-119.3z"/>
				<path id="&lt;Path&gt;" class="s8" d="m545.2 246.8q0 0 0 0c-1.1 18.7-7.5 36.5-16.4 37-8.8 0.5-11.6-19.3-10.8-39.4q0-0.1 0-0.1 0.2-4.7 0.6-9.2 0-0.5 0-0.5c1.7-17.5 5.8-32.5 10.8-31.2 12.8 3.5 17.1 24 15.8 43.4z"/>
				<path id="&lt;Path&gt;" class="s7" d="m70.9 323.4c0 0 1 67.8 0 72.4-1 4.7-14.1 34.7-8.4 60 5.7 25.3 14.8 37.3 17.5 45.5 2.8 8.1 9.8 41.9 9.5 41.2-0.2-0.8-7.1-53.1-7-56.6 0.2-3.6-0.1-41.3-1.9-46.3-1.7-5-4.9-32.6-5.9-41.8-1.1-9.2-3.8-74.4-3.8-74.4z"/>
				<path id="&lt;Path&gt;" class="s9" d="m81.3 482.8c-5.7 13.5-11.4-9.6-14.3-30.6-0.8-6-0.9-13-0.6-19.9q0-0.1 0-0.1c1-18.3 5.2-36.3 8.3-34.4 3.7 2.2 8 33.4 8.7 57.9 0.3 12.1-0.2 22.6-2.1 27.1z"/>
				<path id="&lt;Path&gt;" class="s2" d="m83.4 455.7c-3.8 15.4-15.3-1.9-17-23.4q0-0.1 0-0.1c1-18.3 5.2-36.3 8.3-34.4 3.7 2.2 8 33.4 8.7 57.9z"/>
				<path id="&lt;Path&gt;" class="s2" d="m545.2 246.8q0 0 0 0c-2.4 7.5-7 14-14.5 16.2-10.7 3.1-12.7-9.3-12.7-18.6q0-0.1 0-0.1c0-4.3 0.4-8 0.6-9.2q0-0.5 0-0.5c1.7-17.5 5.8-32.5 10.8-31.2 12.8 3.5 17.1 24 15.8 43.4z"/>
				<path id="&lt;Path&gt;" class="s10" d="m114.8 142.1c-57.4 55.4 44.5 279 192.7 268.5 148.2-10.6 196-247.4 176.3-261.8-19.7-14.5-326.1-48.2-369-6.7z"/>
				<path id="&lt;Path&gt;" class="s10" d="m171 140.3c-45.5 38.7 132.9 211.2 218.6 164.8 85.8-46.4 104-120.2 82.6-143.7-21.4-23.5-271-46.7-301.2-21.1z"/>
				<path id="&lt;Path&gt;" class="s11" d="m576.7 263.8c-10.3 137.6-26.3 327-37.5 336.4q-0.1 0.1-0.4 0.2c-22.5 14.6-450.5 16.7-478.7 0.8-34.8-19.5-36.4-520.6-36.4-520.6 2.5-2.5 13.5-4.8 30.6-6.9 6.6-0.8 14.1-1.6 22.4-2.3-14.2 1.9-35.4 6.9-38.9 20.8-5.2 21 7 35 7 35 0 0-16.5 19.8-13.3 28.6 3.2 8.8 7.4 16.5 7.4 16.5 0 0-9.1 56.6-6.3 122.3 2.8 65.7 9.5 87.1 9.5 87.1 0 0-6.2 68.2-2.6 83 3.6 14.7 12.7 20.4 12.7 20.4 0 0-8.1 28.1-5.6 32.3 2.5 4.2 14.5 15.1 14.5 15.1 0 0-14.3 55.2 0 60.1 14.3 4.9 24.2-13 24.2-13 0 0 11.9 27.8 30.2 25.3 18.3-2.4 25.6-13.7 25.6-13.7 0 0 85.1 16.2 149.4 18.6 64.3 2.5 105.8-21.1 105.8-21.1 0 0 42.5 20.4 61.5 18.3 19-2.1 20-9.5 20-9.5 0 0 29.3 5.3 36.6-1.4 7.1-6.4-10.1-17.5-11.2-18.2 1.4 0.4 20.7 6.9 26.2-3.6 5.7-10.9-7.3-34.1-7.3-34.1 0 0 25.1-28.1 28.2-52 3.1-23.9-7.5-50.2-7.5-50.2 0 0 21.8-56.5 19.7-72.9-2.1-16.4-12.6-22.7-12.6-22.7 0 0 19.2-25.9 26.8-78.6z"/>
				<path id="&lt;Path&gt;" class="s12" d="m71 153.2c0 0-0.7-42 3.9-44.8 4.6-2.8 74-3.9 74-3.9 0 0-62.2 3.7-68 10.2-5.8 6.5-9.9 38.5-9.9 38.5z"/>
				<path id="&lt;Path&gt;" class="s13" d="m192.4 512.7c0.2 5.9-4.7 10.7-11.7 14.4q-0.1 0-0.1 0c-8.3 4.3-19.6 7-29.3 8.1-11.6 1.3-24.4-4-33.8-10.3q0 0 0-0.1c-5.1-3.4-9.2-7.1-11.5-10.1-6.5-8.6 13.2-39.2 34.1-39.2 11.9 0 51.8 24.3 52.3 37.2z"/>
				<path id="&lt;Path&gt;" class="s13" d="m502.4 383q0 0 0 0c-2 7.7-6 15.9-11.2 21.8-7.5 8.6-23.6 5.9-35.4-1.6q0 0.1-0.3-0.2c-5.8-3.7-10.6-8.5-12.8-13.7-6.6-15.8 36.9-36.5 57.2-25.8 4.4 2.4 4.8 10.5 2.5 19.5z"/>
				<path id="&lt;Path&gt;" class="s13" d="m192.4 512.7c0.2 5.9-4.7 10.7-11.7 14.4 1-0.7 10-6.9 8.3-16.3-1.8-9.9-33.3-30.1-48.2-32.5-15-2.3-32.8 26.9-32.8 30.7 0 3.7 8.8 14.9 9.5 15.8-5.1-3.4-9.2-7.1-11.5-10.1-6.5-8.6 13.2-39.2 34.1-39.2 11.9 0 51.8 24.3 52.3 37.2z"/>
				<path id="&lt;Path&gt;" class="s13" d="m502.4 383c0-0.9 0.5-10.6-0.3-14-1-3.6-5.1-6.7-22.7-6.1-17.6 0.7-30.2 12.7-34.8 21-4.2 7.6 8.7 17.5 10.9 19.1-5.8-3.7-10.6-8.5-12.8-13.7-6.6-15.8 36.9-36.5 57.2-25.8 4.4 2.4 4.8 10.5 2.5 19.5z"/>
				<path id="&lt;Path&gt;" class="s13" d="m413.8 131.6c-8.7 6.5 2.4 65.9 30.9 65.3 28.4-0.5 39.2-51.6 28.4-58.7-10.8-7.2-50.1-13.5-59.3-6.6z"/>
				<path id="&lt;Path&gt;" class="s13" d="m370.1 206.2c-17.5-8.2-30.4 36.6-11.1 42.1 19.2 5.6 38.7-29.2 11.1-42.1z"/>
				<path id="&lt;Path&gt;" class="s13" d="m419.9 222.8c-6.3 17.3-8.5 41.6 15.3 35.3 23.7-6.3 40.6-35.6 30-43-10.5-7.4-42.8 0.8-45.3 7.7z"/>
				<path id="&lt;Path&gt;" class="s13" d="m482 78.8c-20.2 9.1 42.2 31.1 54.5 30.5 12.4-0.5 38.5-22.4 32.2-27.6-6.3-5.3-80.9-5.6-86.7-2.9z"/>
				<path id="&lt;Path&gt;" class="s13" d="m567.3 107.4c-10.2-1.6-23.6 15.1-20.1 24.6 3.6 9.5 14.5 43.2 22.5 34.7 8-8.6 11.9-57.1-2.4-59.3z"/>
				<path id="&lt;Path&gt;" class="s13" d="m200.1 570.4c-17.2 14.7 59.3 39.8 93.2 35 33.8-4.7 59.1-25.3 54.7-32.1-4.5-6.9-144.2-6.1-147.9-2.9z"/>
			</g>
			<path id="&lt;Path&gt;" class="s14" d="m184.5 585.1c-0.1 3.6-1.5 6.9-3.5 9.8-6.4 9.4-19.8 14.6-19.8 14.6 0 0 1.2 0.8 2.8 2.2 4 3.3 10.2 10.3 4.5 17.6-7.9 10.3-46.4 4.8-46.4 4.8 0 0-17.4 19.4-77.4 1.4-12.1-3.5-21-97.8-14.4-97.3 3.6 0.3 7.6 3.2 10.3 5.6 2 1.9 3.4 3.5 3.4 3.5 0 0-1.1-11.4-0.6-23.3 0.6-12.9 3.1-26.5 11.3-26.4 13.6 0.2 17.7 36.6 20.3 48.3q0.2 0.5 0.2 0.8c0.3 1.3 0.6 2.1 0.9 2.6 0.6 0.7 1.8 1.2 3.4 1.6q0 0 0.1 0c0.1 0.1 0.6 0.2 1.2 0.3q0.5 0.1 1.2 0.3c7.4 1.2 19.6 1.4 24.3 5.8 2.9 2.7 2.5 6.9 1.1 10.8-1.8 5-5.1 9.5-5.1 9.5 0 0 1.2-0.2 3.5-0.4q0 0.1 0.5 0c16.7-1.4 78.8-5.6 78.2 7.9z"/>
			<path id="&lt;Path&gt;" class="s15" d="m196.6 567c-12.5 7 30.5 32.2 61.8 26.9 31.3-5.3 45.5-24.8 38.1-26.9-7.3-2.1-89.6-5.8-99.9 0z"/>
			<path id="&lt;Path&gt;" class="s16" d="m50.1 453.8c-6.8-3.9-17.3 19.9-9 27.4 8.3 7.5 20.6 12.7 21.2 4.8 0.7-7.9-5.1-28.1-12.2-32.2z"/>
			<path id="&lt;Path&gt;" class="s17" d="m585.2 397.2c-4.4 6.7-8.5 21.8-8.5 21.8 0 0 2.7 28.1-2.8 31.8-5.4 3.7-11-1.8-12.4-3.2-1.4-1.4-17.8 19.9-18 0-0.1-11.5 5.1-25.1 9.5-34.4q0-0.2 0.1-0.3c2.3-4.8 4.3-8.5 5.2-10.1 0.1-0.2 0.2-0.3 0.2-0.4 0 0 0 0 0 0 0.2-0.3 0.2-0.4 0.3-0.4-0.7 0.4-10.9 7.5-20.2-7.4-6.4-10.3 3.6-31.3 13.7-45q0 0 0-0.1c5.1-6.9 10.3-12 13.3-12.8 4.1-1 5 6.9 6 8.8q0.2 0.4 0.8 0.2c3-0.5 13.5-8.7 14.7-5.5 1.4 3.8 2.5 50.3-1.9 57z"/>
			<path id="&lt;Path&gt;" class="s18" d="m585.2 397.2c-4.4 6.7-8.5 21.8-8.5 21.8 0 0 2.7 28.1-2.8 31.8-5.4 3.7-11-1.8-12.4-3.2-1.4-1.4-17.8 19.9-18 0-0.1-11.5 5.1-25.1 9.5-34.4-2.3 5.6-4.5 13.2-4.7 22-0.4 18.6 12.2 6.2 12.2 6.2 0 0 4.1 5.5 8.2-5.9 4.1-11.5 14.4-84.6 9.4-87.3-3.1-1.6-4.8-2.3-5.7-2.5 3-0.5 13.5-8.7 14.7-5.5 1.4 3.8 2.5 50.3-1.9 57z"/>
			<path id="&lt;Path&gt;" class="s19" d="m569.7 298.1c0.1 0.1 0 0.1 0 0.1-0.6 10.2-8.2 25.2-16.9 29q-2.3 1-4.6 0.8c-9.2-0.8-9.4-12.3-4.6-22.8q0-0.1 0-0.1c3.6-7.7 10-14.8 17.5-16.4 3.1-0.6 5.2 0 6.6 1.5 1.6 1.8 2.2 4.6 2 7.9z"/>
			<path id="&lt;Path&gt;" class="s18" d="m168.5 629.3c-7.9 10.3-46.4 4.8-46.4 4.8 0 0-17.4 19.4-77.4 1.4-12.1-3.5-21-97.8-14.4-97.3 3.6 0.3 7.6 3.2 10.3 5.6l0.1 0.1c-2.9 0.3-8.4 50 16.4 62.5 24.8 12.5 100.4 19.3 107.4 12.5 3.2-3 0.3-5.9-0.5-7.2 4 3.3 10.2 10.3 4.5 17.6z"/>
			<path id="&lt;Path&gt;" class="s20" d="m75 545.9c-1.8-6.9-11.5-41.6-19.8-44.8-9.1-3.6-11.8 23-11.8 23v-0.1c0.6-12.9 3.1-26.5 11.3-26.4 13.6 0.2 17.7 36.6 20.3 48.3z"/>
			<path id="&lt;Path&gt;" class="s20" d="m107.4 568.1c-0.4 0.2-0.9-6.9-4.5-10.1-4.7-4.3-15.5-5.4-20.9-6.5 7.4 1.2 19.6 1.4 24.3 5.8 2.9 2.7 2.5 6.9 1.1 10.8z"/>
			<path id="&lt;Path&gt;" class="s20" d="m181 594.9c0 0 1.6-12.4-17.2-16.3-17.6-3.6-52.6-1.7-57.5-1.4 16.7-1.4 78.8-5.6 78.2 7.9-0.1 3.6-1.5 6.9-3.5 9.8z"/>
			<path id="&lt;Path&gt;" class="s18" d="m42.3 633.7c-3.8-1.6 1.9-23.9 13.3-23.6 11.3 0.2 60.9 15.8 62.6 21.4 1.7 5.7-29.2 22.1-75.9 2.2z"/>
			<path id="&lt;Path&gt;" class="s21" d="m53.1 505.7c-15.3 6-3.4 48.6-4.5 48.9-1 0.3-9.3-1.8-6.7 15.6 2.7 17.4 6.1 30 39 35.8 33 5.8 104.3-2.6 92.8-14.7-11.5-12.2-74.3-9.9-74.3-9.9 0 0 8.5-17.2-1.1-22.7-9.6-5.5-21.5-2.4-21.5-2.4 0 0-11.6-55.3-23.7-50.6z"/>
			<path id="&lt;Path&gt;" class="s22" d="m44 635.3c0 0 15.1 9.4 46.9 9.9 31.7 0.5 36.7-6.1 36.7-6.1 0 0 24.4 4.1 37.2-2.5 12.9-6.6 4.7-18.4 4.7-18.4 0 0 3.6 9.8-10.1 13-13.7 3.3-38 1.7-38 1.7 0 0-6.4 8.3-29.8 9.1-23.5 0.9-47.6-6.7-47.6-6.7z"/>
			<path id="&lt;Path&gt;" class="s22" d="m164 611.7c0 0 5.3-0.4 13.8-8.5 8.6-8.2 6.8-19.3 6.7-19 0 0.3-1.7 7.3-10.1 14.1-8.4 6.9-16.6 9.5-16.1 10 0.6 0.4 5.7 3.4 5.7 3.4z"/>
			<path id="&lt;Path&gt;" class="s22" d="m105.8 556.9c0.1 0.1 2.8 4.3 0.5 10.4-2.3 6-5.4 10.5-5.4 10.5l6.3-0.7c0 0 2.8-4 3.4-11 0.5-7.1-4.8-9.2-4.8-9.2z"/>
			<path id="&lt;Path&gt;" class="s22" d="m44.5 512.6c0 0-1.7 13.5-2.2 22.9-0.6 9.4-0.3 9.7-0.3 9.7 0 0 3.1 3.3 3.1 3.2 0-0.2-0.9-29.7-0.6-35.8z"/>
			<path id="&lt;Path&gt;" class="s22" d="m194.8 568.6c0 0 21.6 24.8 55.2 21.2 33.7-3.5 34.3-17.6 32.9-20.3-1.5-2.6-7.6-4.4-7.6-4.4 0 0 21.5-1.8 25.5 2.3 3.9 4.1-2 25.1-27.8 30.5-25.7 5.5-88.5-9.6-78.2-29.3z"/>
			<path id="&lt;Path&gt;" class="s20" d="m197.1 566.7c0 0 3.7-3 22.9-3.6 19.3-0.6 45.5 1.5 45.5 1.5 0 0-46.9-0.7-68.4 2.1z"/>
			<path id="&lt;Path&gt;" class="s21" d="m198.2 568c-6.7 2.9 19.6 19.1 37.3 18.7 17.6-0.4 10.9-6.9 10.9-6.9 0 0 28.9 1.1 26.2-6.6-2.8-7.7-65.7-9-74.4-5.2z"/>
			<path id="&lt;Path&gt;" class="s22" d="m40.8 461.1c0.2-0.3-4.8 8.9-3.4 18.4 1.4 9.4 20.3 18.1 24.8 15.8 4.5-2.2-1.1-19.9-1.1-19.9 0 0 3.2 6-6.2 5.9-9.4 0-17.8-12.8-14.1-20.2z"/>
			<path id="&lt;Path&gt;" class="s20" d="m42 458.9c0.1-0.1 3.8-5.3 6.9-4.4 3.1 1 7 6.5 7 6.4-0.1-0.2-2.9-8.2-7-8-4 0.2-6.9 6-6.9 6z"/>
			<path id="&lt;Path&gt;" class="s21" d="m45.9 456c-6.9 2-6.3 14-2.8 15.4 3.5 1.3 4.6-0.3 4.6-0.3 0 0 3.7 11.4 9.8 7.9 6-3.5-2.6-25.7-11.6-23z"/>
			<path id="&lt;Path&gt;" class="s22" d="m538 377.2c0 0-3 15.2 8 19.9 11 4.6 16.5-2 16.4-1.5-0.1 0.5-3.4 5.9-3.6 6.3-0.2 0.4-2.7 5.3-9.8 5.1-7.1-0.2-21.8-7.3-11-29.8z"/>
			<path id="&lt;Path&gt;" class="s22" d="m546 431.4c0 0.2-8.2 28.4-0.7 29.7 7.5 1.2 16-11.3 16-11.3 0 0 4.5 6.9 11.8 3.7 7.3-3.2 6-32.5 6-32.7 0-0.2 5.9-18.5 5.9-18.5l0.2-5.1c0 0-9.4 20.9-9.3 24.1 0.1 3.1 1.5 27.1-6.1 28.9-8.6 2-9.1-9.2-9.3-8.4-0.2 0.8-8.2 12.4-13.1 11.2-4.9-1.3-1.4-21.6-1.4-21.6z"/>
			<path id="&lt;Path&gt;" class="s21" d="m565.3 339.5c-7.8-1.6-31.6 46.6-17.1 51.6 14.5 5.1 17.7 1 17.7 1 0 0-16.1 39.2-0.9 35.5 15.2-3.7 13-76 10.1-78.5-2.9-2.6-6.6-9-9.8-9.6z"/>
			<path id="&lt;Path&gt;" class="s20" d="m544.9 361.2c-0.1 0.2 7.8-14.7 18.2-22.1 3.5-2.6 6.5 0.6 6.4 0.3-0.1-0.2-0.2-3.2-2.9-3.4-5-0.2-15.7 11.8-21.7 25.2z"/>
			<path id="&lt;Path&gt;" class="s22" d="m569.7 298.2c-0.6 10.2-2.4 34-21.7 33.9-11.6 0-9.2-16.4-4.4-26.9-0.4 1.4-1.8 21.1 12.4 11.5 9.8-6.6 13-13.5 13.7-18.5z"/>
			<path id="&lt;Path&gt;" class="s21" d="m561.2 289.4c-6.1 0.3-19.2 15.1-14.8 18.3 4.4 3.2 7.6 0 7.6 0 0 0 6.2 7.4 10.3-0.1 4.1-7.6 8-18.7-3.1-18.2z"/>
			<path id="&lt;Path&gt;" class="s20" d="m548.4 297.4c-0.6 0.6 4.8-7 10.1-8.7 6.6-2.1 9.1 1.4 9 1.4 0-0.1-7.5-6-19.1 7.3z"/>
			<path id="&lt;Path&gt;" class="s23" d="m409.8 607.1c-19-6.4 42.9-48.4 58.5-46.3 15.6 2.1 8.4 12.3 8.4 12.3 0 0 53.4-28.6 59.1-11 5.6 17.5-9.5 30.5-24.8 37.6-15.3 7-90.7 10.9-101.2 7.4z"/>
			<path id="&lt;Path&gt;" class="s23" d="m109.9 131.9c-35 14.8-22.8 193.7 27.1 203.1 49.9 9.5 51.3-53.4 52.3-53.4 1.1 0 44.7 20.4 60.5-17.5 15.8-38-48.8-170.5-139.9-132.2z"/>
			<path id="&lt;Path&gt;" class="s23" d="m210.4 317.5c-17.4 11.3 26 60.1 36.2 39.3 10.2-20.7-20-49.9-36.2-39.3z"/>
			<path id="&lt;Path&gt;" class="s23" d="m244.9 294.1c-1.8 10.4 26.1 8.4 20-1.2-6.2-9.7-18.6-7.2-20 1.2z"/>
			<path id="&lt;Path&gt;" class="s23" d="m228.5 139.2c-34.5 21.8 44.1 37.1 77.2 30.9 33-6.1 76.6-26.7 53.7-38.3-22.8-11.6-106.1-8.2-130.9 7.4z"/>
		</g>
	</g>
</svg>