<svg version="1.2" xmlns="http://www.w3.org/2000/svg" viewBox="0 0 45 45" width="45" height="45">
	<title>Proyecto nuevo</title>
	<defs>
		<linearGradient id="g1" x2="1" gradientUnits="userSpaceOnUse" gradientTransform="matrix(0,-65.435,64.599,0,.742,60.134)">
			<stop offset="0" stop-color="#393252"/>
			<stop offset="1" stop-color="#7a6583"/>
		</linearGradient>
	</defs>
	<style>
		.s0 { fill: url(#g1) } 
		.s1 { fill: #45365c } 
		.s2 { opacity: .1;mix-blend-mode: screen;fill: #a7b6df } 
		.s3 { opacity: .4;mix-blend-mode: multiply;fill: #6e1a46 } 
		.s4 { opacity: .3;mix-blend-mode: soft-light;fill: #e0deea } 
		.s5 { opacity: .7;mix-blend-mode: multiply;fill: #e5e0e5 } 
		.s6 { opacity: .3;mix-blend-mode: soft-light;fill: #cecfe5 } 
		.s7 { fill: #a295b3 } 
		.s8 { fill: #7b6a91 } 
		.s9 { fill: #ffffff } 
		.s10 { opacity: .4;mix-blend-mode: multiply;fill: #574b87 } 
	</style>
	<g id="&lt;Group&gt;">
		<path id="&lt;Path&gt;" class="s0" d="m41.7 33.6c-4 4.2-11.7 9.7-17.7 10.4-6 0.6-14.2-5.5-17.2-7.4-3-1.9-5.7-12.1-5.5-15.5 0.2-3.5 3.1-10 4.5-12.3q0.2-0.3 0.5-0.6c2-2.3 8.2-6.1 11.7-7.3q0.3-0.1 0.5-0.1h0.1c3.8-1.1 8.7-0.4 12.5 1.1 4.1 1.5 9.9 7.8 11.8 11.2 2 3.3 2.7 16.2-1.2 20.5z"/>
		<path id="&lt;Path&gt;" class="s1" d="m42.4 32.7q-0.3 0.5-0.7 0.9c-4 4.2-11.7 9.7-17.7 10.4-6 0.6-14.2-5.5-17.2-7.4-2.7-1.7-5.3-10.5-5.5-14.6q0-0.5 0-0.9c0.2-3.5 3.1-10 4.5-12.3q0.2-0.3 0.5-0.6c-0.1 0.5-2.7 12.1-2.4 13.9 0 0.5 0.3 1.3 0.6 2.4q0 0 0 0c1 2.7 2.8 6.6 4.7 8.8q0.5 0.6 1 1c1.8 1.4 5.7 3.9 9.9 5.2q0 0 0 0c1.1 0.3 2.3 0.6 3.5 0.6q0 0 0 0 0.3 0.1 0.7 0.1h0.1q1.6 0 3.1-0.5 0 0 0.1-0.1 0 0 0 0c1.7-0.5 3.4-1.1 5.1-1.8q0 0 0-0.1c1.5-0.6 2.9-1.2 4.2-2q0 0 0 0c2.9-1.7 5.2-3.8 5.9-6.4 1.5-5.3 0.1-16.2 0.1-16.2 1.9 3.1 2.6 14.7-0.5 19.6z"/>
		<path id="&lt;Path&gt;" class="s2" d="m39.4 29.5q-0.2 0.3-0.4 0.6-0.2 0.2-0.5 0.5c-0.7 0.9-1.8 1.8-2.9 2.6q0 0 0 0 0 0.1 0 0.1c-2.9 2.1-6.5 3.9-7.9 4.3-2.1 0.6-8.2-1-10.9-1.9-2.6-0.7-7.9-8-9-10.4q-0.1-0.3-0.2-0.5c-0.2-1.6 0.1-10.7 1.1-12.9 0.9-2.3 7.2-5.6 9.4-6.9q0.2-0.1 0.4-0.2 0 0 0 0 0.4-0.2 0.9-0.3 0 0 0 0 0 0 0.1 0c1.9-0.5 5-0.6 7.8-0.1 1.8 0.3 3.5 0.8 4.7 1.6 1.7 1.1 3.4 2.6 4.9 4.1q0.3 0.3 0.6 0.6c1.3 1.5 2.4 2.9 3 4.1q0.1 0.1 0.1 0.2c1.2 2.5 0.7 11.1-1.2 14.5z"/>
		<path id="&lt;Path&gt;" class="s3" d="m42.4 32.7q-0.3 0.5-0.7 0.9c-4 4.2-11.7 9.7-17.7 10.4-6 0.6-14.2-5.5-17.2-7.4-2.7-1.7-5.3-10.5-5.5-14.6 0.7 0 1.7 0 2.1 0.5 0.2 0.2 0.6 1 1.1 2q0 0 0 0c1.3 2.7 3.4 7.1 4.7 8.8q0 0 0.1 0.1c1.4 1.9 5.8 4.7 10.8 6.1q0 0 0 0 1.7 0.5 3.5 0.6 0 0 0 0 0.3 0.1 0.7 0.1h0.1q1.4-0.1 3.2-0.6 0 0 0 0c1.6-0.4 3.4-1.1 5.1-1.8q0 0 0-0.1c1.4-0.6 2.9-1.3 4.2-2q0 0 0 0c2.3-1.2 4.2-2.3 5.5-3z"/>
		<path id="&lt;Path&gt;" class="s4" d="m19.5 4.5l-1 0.3q0.5-0.2 1-0.3z"/>
		<path id="&lt;Path&gt;" class="s4" d="m35.6 33.2c-2.9 2.2-6.5 4-7.9 4.4-2.1 0.6-8.2-1-10.9-1.9-2.8-0.8-8.9-9.3-9.2-10.9-0.2-1.6 0.1-10.7 1.1-12.9 0.9-2.3 7.2-5.6 9.4-6.9q0.2-0.1 0.4-0.2c0 0-1.9 2.6-2.6 3-0.6 0.4-2 0.9-2.5 1.2-0.6 0.4-1.2 1.1-1.2 1.3 0 0.2-2.9 0.8-3.1 1.5-0.2 0.6-0.5 5.4-0.1 5.8 0.5 0.4-0.3 0-0.7 2.7-0.4 2.8 0.6 4.3 0.6 4.3 0 0-0.6 0.5 0 1.6 0.6 1 2.7 4.6 3.5 5.1 0.9 0.5 2.8 0.9 2.8 0.9 0 0 0.1 2.6 1.5 2.9 1.4 0.4 2.2 0.1 3.1 0.5 1 0.5 3.4 1.6 5.9 1.6 2.6 0 4.7-1.5 5.2-1.6 0.5-0.1 4.4-2.2 4.7-2.4z"/>
		<path id="&lt;Path&gt;" class="s4" d="m32 6c1.7 1.1 3.4 2.6 4.9 4.1-1.2-0.8-3.4-1.1-3.4-1.1 0 0-0.7-0.8-1.6-2.1-0.9-1.3-4.6-2.5-4.6-2.5 1.8 0.3 3.5 0.8 4.7 1.6z"/>
		<path id="&lt;Path&gt;" class="s4" d="m39.4 29.5q-0.4 0.6-0.9 1.1c0.4-1.2 0.8-2.5 0.8-2.8 0-0.5 1.1-2.8 1.2-3.7 0.1-0.9-0.3-2.5-0.5-3.4-0.1-0.9 0.7-2.8 0.8-3.4 0.1-0.7-0.8-2.9-1.2-3.3-0.3-0.5-1-0.3-1-0.3 0 0-0.4-1.7-1.1-3 1.4 1.6 2.6 3.1 3.1 4.3 1.2 2.5 0.7 11.1-1.2 14.5z"/>
		<path id="&lt;Path&gt;" class="s5" d="m38.7 33.9q-0.2 0.3-0.3 0.5c-0.8 0.9-7.5 5.7-13.9 5.8q0 0 0 0h-0.1c-6.4 0-13-4.9-14.6-6.3-1.5-1.3-3.2-8.3-2.5-8.6q0.1 0 0.5 0c1.1 2.4 6.4 9.7 9 10.4 2.7 0.9 8.8 2.5 10.9 1.9 1.4-0.4 5-2.2 7.9-4.3q0 0 0-0.1 0 0 0 0c0.8-0.6 1.6-1.2 2.2-1.8q0.4-0.4 0.7-0.8 0.3-0.3 0.5-0.5 0.3 0 0.4 0.1c0.2 0.2-0.1 2.5-0.7 3.7z"/>
		<path id="&lt;Path&gt;" class="s5" d="m38.7 33.9q-0.2 0.3-0.3 0.5c-0.8 0.9-7.5 5.7-13.9 5.8 0.2-0.2 2.6-2.4 3.2-2.6 1.4-0.4 5-2.2 7.9-4.3q0 0 0-0.1 0 0 0 0c0.8-0.6 1.6-1.2 2.2-1.8 0.6-0.3 1-0.4 1.1-0.2 0.2 0.4 0 1.6-0.2 2.7z"/>
		<path id="&lt;Path&gt;" class="s6" d="m42.9 13.1c-0.3 1.1-1.1 1.4-2.4 1.7-0.6-1.2-1.7-2.6-3-4.1q-0.3-0.3-0.6-0.6c-1.5-1.5-3.2-3-4.9-4.1-1.2-0.8-2.9-1.3-4.7-1.6-2.8-0.5-5.9-0.4-7.8 0.1q-0.1 0-0.1 0 0 0 0 0-0.3-0.1-0.4-0.1c-0.7-0.1-0.5-3.6-0.5-3.6h0.1c3.8-1.1 8.7-0.4 12.5 1.1 4.1 1.5 9.9 7.8 11.8 11.2z"/>
		<path id="&lt;Path&gt;" class="s7" d="m13.2 7.9c0 0 4.9-3 5.1-3.4 0.2-0.5 0.1-2.6 0.2-2.3 0.1 0.3 1.3 1.9 1.8 2 0.5 0 3.9-0.1 3.9-0.1-0.1 0-4.7 0.5-5.8 0.9-1 0.4-5.2 2.9-5.2 2.9z"/>
		<path id="&lt;Path&gt;" class="s8" d="m7.5 23.2c-0.2-0.1-1.2 2.1-0.8 2.5 0.5 0.4 2.5 2.2 2.4 1.9-0.1-0.4-1.3-4.3-1.6-4.4z"/>
		<path id="&lt;Path&gt;" class="s8" d="m23.4 37.4c0 0 3 0.5 2.9 0.8-0.1 0.3-0.7 1.1-0.7 1.1 0 0 2.1-1.4 2.5-1.6 0.4-0.3 3.3-1.8 3.1-1.7-0.2 0.1-2.7 1.4-4.2 1.6-1.5 0.1-3.6-0.2-3.6-0.2z"/>
		<path id="&lt;Path&gt;" class="s7" d="m39.2 12.7c0 0 1.2 1.5 1.7 1.6 0.5 0 1.6-0.5 1.8-0.8 0.3-0.3 0.2-0.6 0.2-0.4 0.1 0.1 0 1.1-0.6 1.3-0.5 0.3-1 0.6-1 1-0.1 0.5-0.2 1.4-0.2 1.4 0 0-0.6-2.2-1.9-4.1z"/>
		<g id="&lt;Group&gt;">
			<path id="&lt;Path&gt;" class="s9" d="m35.9 17.2q0 0.1 0.1 0.7c0.1 2-0.1 7.1-0.3 7.2-0.1 0-0.4 0-0.9 0q0 0 0 0c-2-0.1-6.6-0.5-6.7-0.3-0.1 0.2 0.2 5.6 0.2 7.2q0 0.4 0 0.5c-0.1 0.1-5.3 0.3-7.1 0.1q-0.4 0-0.6-0.1 0 0 0 0 0 0 0 0 0-0.1 0-0.3 0-0.3 0-0.9v-0.1c0.1-2.1 0.3-5.9 0.1-6.2q0-0.1-0.1-0.1 0 0 0 0c-0.7-0.1-3.4-0.1-5.3-0.1q0 0 0 0c-1.2 0-2.1 0-2.2-0.1q0-0.1 0-0.6c0 0-0.1-0.2-0.1-0.6-0.1-2-0.1-5.7 0.2-5.8 0.3-0.2 7.4-0.2 7.5-0.3 0.1 0-0.6-7.3-0.2-7.5 0.5-0.3 7.7-0.2 7.7 0 0 0.2 0 1.8-0.1 3.5q0 0.9 0 1.7 0 0 0 0 0 0 0 0c0 1 0 1.9 0.1 2.2q0 0.1 0.1 0.1c0.3 0 5.2-0.7 7-0.5q0.1 0 0.2 0.1 0 0 0 0 0 0 0.1 0 0 0 0 0 0.1 0 0.1 0 0 0 0.1 0.1 0.1 0 0.1 0.1z"/>
			<path id="&lt;Path&gt;" class="s10" d="m21.3 25.1c0.1 0.3 0 5.6-0.1 7.5q-0.4 0-0.6-0.1 0 0 0 0 0 0 0 0 0-0.1 0-0.3c0-1.3 0.3-6.9 0.1-7.2q0-0.1-0.1-0.1c0.3 0 0.7 0.2 0.7 0.2z"/>
			<path id="&lt;Path&gt;" class="s10" d="m21.1 10.8c-0.4 0.3 0.3 7.6 0.2 7.6-0.1 0.1-7.2 0.1-7.5 0.2-0.3 0.2-0.3 4.3-0.2 6.2q-0.4 0-0.5-0.1c-0.2-0.3-0.2-6.9 0.1-7 0.3-0.2 7.4-0.2 7.5-0.3 0.1 0-0.6-7.3-0.2-7.5 0.5-0.3 7.7-0.2 7.7 0 0 0.1 0 0.4 0 0.9-1.7-0.2-6.7-0.2-7.1 0z"/>
			<path id="&lt;Path&gt;" class="s10" d="m35.9 17.2q0 0.1 0.1 0.7c-1.7-0.2-7.3 0.4-7.6 0.4-0.1 0-0.2-0.4-0.2-1q0 0 0 0 0 0.1 0.1 0.1c0.3 0 5.4-0.7 7-0.5q0.1 0 0.2 0.1 0.1 0 0.1 0 0.1 0 0.1 0 0 0 0.1 0.1 0.1 0 0.1 0.1z"/>
			<path id="&lt;Path&gt;" class="s4" d="m28.5 9.8c0.3 0.1-0.4 3.6-0.4 3.6 0.1-1.7 0.1-3.3 0.1-3.5 0-0.2-7.2-0.3-7.7 0-0.4 0.2 0.3 7.5 0.2 7.5-0.1 0.1-7.2 0.1-7.5 0.3-0.3 0.1-0.3 3.8-0.2 5.8-0.1-1.7-0.3-6.1-0.1-6.2 0.3-0.2 6.2 0 6.6-0.2 0.4-0.2 0.5-0.6 0.5-0.6 0 0 0.3 0.1 0.4-0.7 0-0.7-0.5-6.1-0.3-6.3 0.3-0.2 3 0.1 4.2 0 1.3-0.1 3-0.4 3.1-0.4 0.1 0.1 0.7 0.6 1.1 0.7z"/>
			<path id="&lt;Path&gt;" class="s4" d="m20.7 25c0.2 0.3 0 4.1-0.1 6.2l-0.2-4.8c0 0 0.1-0.6-0.1-0.9-0.2-0.2-4.5-0.6-5-0.7 1.9 0 4.6 0 5.3 0.1q0 0 0 0 0.1 0 0.1 0.1z"/>
			<path id="&lt;Path&gt;" class="s4" d="m35.3 16.9c-1.8-0.2-6.7 0.5-7 0.5q-0.1 0-0.1-0.1c-0.1-0.3-0.1-1.2-0.1-2.2 0 0.2 0.3 1.7 0.6 1.8 0.3 0.2 1.5-0.4 1.5-0.4 0 0 0.9 0.4 2.5 0.3 1-0.1 2 0 2.6 0.1z"/>
			<path id="&lt;Path&gt;" class="s4" d="m34.8 25.1c0 0-3.1 0.5-3.1 0.4-0.1-0.1-2.6-0.6-3.3-0.5-0.6 0.1 0.4 1.8 0.4 1.8 0.1 0-0.2 0.2-0.4 1-0.3 0.8 0.6 2.1 0.6 2.1 0 0-0.3 0.6-0.4 0.9-0.1 0.2-0.2 0.9-0.3 1.2 0-1.6-0.3-7-0.2-7.2 0.1-0.2 4.7 0.2 6.7 0.3q0 0 0 0z"/>
		</g>
	</g>
</svg>